<svg id="icon_ht-zumbini" xmlns="http://www.w3.org/2000/svg" xmlns:xlink="http://www.w3.org/1999/xlink" x="0px"
	 y="0px" width="108px" height="177px" viewBox="0 0 108 177" style="enable-background:new 0 0 108 177;" xml:space="preserve">
<style type="text/css">
	.st0{fill:#FFFFFF;}
	.st1{fill:#E73E5D;}
	.st2{fill:#8B8A99;}
</style>
<title>icon_ht-bag</title>
<path class="st0" d="M45.4,15.8c-1.6-4.3-3.5-6.1-7.9-6.1h-4.1c-0.4-6.3-4.2-8-8.9-8c-4.6,0-8.4,1.7-8.9,8h-4.1
	c-4.4,0-6.3,1.8-7.9,6.1l-2,8.2c0,4.5,1.6,8.2,5.9,8.2h34c4.4,0,5.9-3.7,5.9-8.2L45.4,15.8z M12.2,28.7H7.5c-0.8,0-2.4,0-2.5-4.3
	l1.8-7.5c1.2-3.2,2.1-3.7,4.6-3.7h2.3L12.2,28.7z M19.1,9.7c0.3-3.7,2.1-4.5,5.4-4.5s5.1,0.7,5.4,4.5H19.1z M31.2,13.2l0.6,5.4
	l1.1,10.1H16.1l1.1-10.1l0.6-5.4C17.8,13.2,31.2,13.2,31.2,13.2z M41.5,28.7h-4.6l-1.7-15.5h2.3c2.5,0,3.4,0.5,4.6,3.7l1.8,7.5
	C43.9,28.7,42.2,28.7,41.5,28.7z"/>
<title>icon_ht-bag-drop</title>
<path class="st1" d="M1.7,56c0,2.4,19.6,20.7,31,20.7S53.3,67.4,53.3,56s-9.2-20.7-20.6-20.7S1.7,53.6,1.7,56z"/>
<title>icon_ht-gear</title>
<g>
	<path class="st2" d="M10.8,86.1c-1.9,0-3.4,1.5-3.4,3.4s1.5,3.4,3.4,3.4c1.8,0,3.4-1.5,3.4-3.4C14.1,87.6,12.6,86.1,10.8,86.1
		 M10.8,91.7c-1.2,0-2.2-1-2.2-2.2s1-2.2,2.2-2.2s2.2,1,2.2,2.2S12,91.7,10.8,91.7"/>
	<path class="st2" d="M20.5,89.1c0-1-0.3-2.2-1.3-2.2h-0.4c-0.7,0-0.9-0.2-1-0.5v-0.1c-0.1-0.2-0.2-0.6,0.4-1.1l0.3-0.3
		c0.7-0.7,0.1-1.8-0.7-2.5c-0.8-0.7-1.9-1.4-2.6-0.7L14.9,82c-0.5,0.5-0.8,0.5-1,0.4l-0.1-0.1c-0.3-0.1-0.5-0.3-0.5-1v-0.4
		c0-1-1.2-1.3-2.2-1.3s-2.2,0.3-2.2,1.3v0.4c0,0.7-0.2,0.9-0.4,1H8.4C8,82.5,7.6,82.5,7.1,82l-0.3-0.3c-0.7-0.7-1.7-0.1-2.5,0.6
		c-0.7,0.8-1.4,1.9-0.7,2.6l0.3,0.3c0.5,0.5,0.5,0.8,0.4,1c0,0,0,0.1-0.1,0.1c0,0.3-0.2,0.5-1,0.5H2.8c-1,0-1.3,1.2-1.3,2.2
		s0.3,2.2,1.3,2.2h0.4c0.7,0,0.9,0.2,1,0.5v0.1c0.1,0.2,0.2,0.6-0.4,1.1l-0.3,0.3c-0.7,0.7-0.1,1.8,0.7,2.5c0.5,0.5,1.2,0.9,1.8,0.9
		c0.3,0,0.5-0.1,0.7-0.3L7,96c0.5-0.5,0.8-0.5,1.1-0.4h0.1c0.3,0.1,0.5,0.3,0.5,1V97c0,1,1.2,1.3,2.2,1.3s2.2-0.3,2.2-1.3v-0.4
		c0-0.7,0.2-0.9,0.5-1h0.1c0.2-0.1,0.6-0.2,1.1,0.4l0.3,0.3c0.2,0.2,0.5,0.3,0.7,0.3c0.6,0,1.3-0.4,1.8-0.9c0.7-0.7,1.3-1.8,0.7-2.5
		L18.1,93c-0.5-0.5-0.5-0.8-0.4-1c0,0,0-0.1,0.1-0.1c0.1-0.3,0.3-0.5,1-0.5h0.4C20.2,91.4,20.5,90.2,20.5,89.1 M19.1,90.2h-0.4
		c-1.3,0-1.8,0.6-2,1.1c-0.3,0.5-0.4,1.4,0.6,2.4l0.3,0.3c0,0.2-0.3,0.6-0.6,0.9c-0.4,0.4-0.8,0.6-0.9,0.6l-0.3-0.3
		c-0.9-0.9-1.7-0.9-2.3-0.6c-0.6,0.2-1.3,0.7-1.3,2.1v0.4c-0.1,0.1-0.6,0.2-1.1,0.2s-1-0.1-1.1-0.2v-0.4c0-1.3-0.6-1.8-1.1-2
		c-0.5-0.3-1.4-0.4-2.4,0.6L6,95.7c-0.2,0-0.6-0.2-0.9-0.6c-0.4-0.4-0.6-0.8-0.6-0.9l0.3-0.3c0.9-0.9,0.9-1.7,0.6-2.3
		c-0.2-0.6-0.7-1.3-2.1-1.3H2.8c-0.1-0.1-0.2-0.6-0.2-1.1s0.1-1,0.2-1.1h0.4c1.2,0,1.8-0.6,2-1.1v-0.1c0.3-0.5,0.4-1.4-0.6-2.4
		l-0.2-0.4c0-0.2,0.3-0.6,0.6-0.9c0.4-0.4,0.8-0.6,0.9-0.6l0.3,0.3c0.6,0.6,1.1,0.8,1.6,0.8c0.2,0,0.4-0.1,0.6-0.1h0.1
		c0.6-0.2,1.3-0.7,1.3-2.1v-0.6c0.2-0.1,0.7-0.2,1.2-0.2s1,0.1,1.1,0.2v0.4c0,1.3,0.6,1.8,1.1,2c0.2,0.1,0.5,0.2,0.8,0.2
		c0.5,0,1-0.2,1.6-0.8l0.4-0.2c0.2,0,0.6,0.3,0.9,0.6c0.4,0.4,0.6,0.8,0.6,0.9l-0.3,0.3c-0.9,0.9-0.9,1.7-0.6,2.2v0.1
		c0.3,0.7,0.8,1.4,2.2,1.4h0.4c0.1,0.1,0.2,0.6,0.2,1.1C19.4,89.7,19.2,90.1,19.1,90.2"/>
</g>
<title>icon_ht-strong</title>
<path class="st0" d="M71,107.8c0.2-0.1,0.4-0.3,0.4-0.6c0-0.5-0.3-0.9-0.9-0.9h-1.3v2.3c0,0.6,0.3,0.8,1,0.8h0.4
	c0.6,0,0.9-0.3,0.9-0.9C71.5,108.1,71.2,107.9,71,107.8z M69.8,106.8h0.7c0.3,0,0.3,0.1,0.3,0.3c0,0.2-0.1,0.3-0.3,0.3h-0.7
	C69.8,107.4,69.8,106.8,69.8,106.8z M70.5,108.9h-0.3c-0.3,0-0.4-0.1-0.4-0.3v-0.5h0.7c0.3,0,0.3,0.2,0.3,0.4S70.8,108.9,70.5,108.9
	z M73.4,107.6l-0.6-1.3h-0.6l0.9,1.8v1.3h0.6v-1.3l1-1.8H74L73.4,107.6z M77,106.1h2.3l-2.2,3.2c-0.1,0.2-0.2,0.5-0.2,0.7
	c0,0.4,0.3,0.7,0.9,0.7h2.8v-1H78l2.6-3.7v-0.8H77V106.1z M85.4,108.8c0,0.7-0.5,1-1,1c-0.6,0-1-0.3-1-1v-3.6h-1.1v3.6
	c0,1.3,1,1.9,2.1,1.9s2.1-0.7,2.1-1.9v-3.6h-1.1C85.4,105.2,85.4,108.8,85.4,108.8z M90.7,108.4l-1.6-3.2H88v5.5h1.1v-3.3l1,2.1
	c0.1,0.3,0.3,0.4,0.5,0.4s0.4-0.1,0.5-0.4l1-2.1v3.3h1.1v-5.5h-1.1C92.1,105.2,90.7,108.4,90.7,108.4z M98.3,107.8
	c0.3-0.1,0.7-0.5,0.7-1.1c0-0.9-0.5-1.5-1.6-1.5H95v4.1c0,1.1,0.5,1.4,1.7,1.4h0.7c1,0,1.6-0.6,1.6-1.6
	C99.1,108.3,98.6,108,98.3,107.8z M96.1,106.1h1.2c0.5,0,0.6,0.2,0.6,0.6s-0.1,0.6-0.6,0.6h-1.2C96.1,107.3,96.1,106.1,96.1,106.1z
	 M97.4,109.7h-0.6c-0.5,0-0.7-0.1-0.7-0.6v-0.8h1.2c0.6,0,0.7,0.3,0.7,0.7S97.9,109.7,97.4,109.7z M102.6,105.2
	c-0.3,0-0.5,0.1-0.6,0.5l-1.8,5.1h1.1l0.3-1h1.9l0.3,1h1.1l-1.8-5.1C103,105.2,102.8,105.2,102.6,105.2z M101.9,108.8l0.7-2.2
	l0.7,2.2C103.3,108.8,101.9,108.8,101.9,108.8z M106,106.6c-0.5,0-0.7-0.2-0.7-0.7s0.2-0.7,0.7-0.7s0.7,0.2,0.7,0.7
	C106.6,106.4,106.4,106.6,106,106.6z M106,105.3c-0.4,0-0.6,0.2-0.6,0.6s0.2,0.6,0.6,0.6s0.6-0.2,0.6-0.6S106.4,105.3,106,105.3z
	 M106.1,106.3L106,106h-0.1v0.3h-0.2v-0.6c0-0.1,0-0.2,0.2-0.2h0.1c0.2,0,0.2,0.1,0.2,0.2s-0.1,0.2-0.1,0.2c0.1,0.1,0.1,0.2,0.2,0.3
	L106.1,106.3C106.1,106.2,106.1,106.3,106.1,106.3z M106,105.7L106,105.7L106,105.7L106,105.7C106,105.9,106.1,105.8,106,105.7
	C106.1,105.7,106,105.7,106,105.7z M11.2,104h3.3v8.6c0,0.9,0.7,1.6,1.6,1.6H17V104h3.3v-2.1h-9L11.2,104
	C11.3,104,11.2,104,11.2,104z M30.8,105.8c0-2.2-1.5-4-4-4h-2.1c-2.1,0-2.8,0.9-2.8,2.7v9.7h2.4v-4.5H26l2.4,4.6h2.8l-2.8-5
	C29.7,108.8,30.8,107.6,30.8,105.8z M26.6,107.7h-2.3v-2.6c0-0.6,0.3-1.1,1.1-1.1h1.2c1.1,0,1.8,0.7,1.8,1.8
	C28.4,106.8,27.7,107.7,26.6,107.7z M37.5,101.8c-3.5,0-4.9,1.9-4.9,5.7v0.9c0,4.2,1.4,6,4.9,6c3.4,0,4.9-1.8,4.9-5.9v-1
	C42.4,103.7,40.9,101.8,37.5,101.8z M40,108.4c0,1.9-0.2,3.8-2.5,3.8s-2.5-1.9-2.5-3.8v-0.7c0-2.1,0.2-3.8,2.5-3.8
	c2.2,0,2.5,1.7,2.5,3.8V108.4z M51.8,110l-5.1-8.1h-2.3v12.4h2.4v-8l4.3,6.7c0.7,1.3,1.4,1.4,2,1.4s1.2-0.6,1.2-1.4v-11.1h-2.4v8.1
	H51.8z M61.7,109.6v0.5h1.5v0.8c-0.5,1-1.2,1.3-2.1,1.3c-2.6,0-2.5-2.1-2.6-4.1c0-2.1,0-4.1,2.3-4.1c1.4-0.1,2.2,0.5,2.2,2h2.3
	c0-1-0.2-2.1-1-2.9c-0.9-0.9-2.1-1.4-3.5-1.4c-3.1,0-4.9,1.9-4.9,5.1v1.5c0,3.9,1.4,5.9,5,5.9c1.7,0,3.3-0.7,4.1-2.1
	c0.1-0.2,0.2-0.5,0.2-0.8v-3.2h-2.1C62.4,108.1,61.7,108.7,61.7,109.6z M8.5,107.4l-1.7,1.5c0.2,0.2,0.4,0.4,0.5,0.7
	c0.1,0.3,0.2,0.6,0.2,0.8c0,0.3-0.1,0.6-0.2,0.8c-0.1,0.3-0.3,0.6-0.5,0.8s-0.5,0.4-0.8,0.5s-0.6,0.2-0.9,0.2s-0.6-0.1-0.9-0.2
	s-0.5-0.3-0.8-0.5l-1.6,1.6c0.4,0.4,1,0.7,1.5,0.9c0.6,0.2,1.2,0.3,1.9,0.3s1.3-0.1,1.9-0.3s1.1-0.5,1.5-0.9c0.4-0.4,0.8-0.9,1-1.4
	c0.3-0.5,0.4-1.1,0.4-1.7s-0.1-1.2-0.4-1.7C9.3,108.3,9,107.8,8.5,107.4z M2.8,109l1.8-1.5c-0.3-0.2-0.5-0.5-0.6-0.7
	c-0.1-0.3-0.2-0.6-0.2-0.9s0.1-0.6,0.2-0.8c0.1-0.3,0.3-0.5,0.5-0.7s0.5-0.3,0.8-0.5c0.3-0.1,0.6-0.2,0.9-0.2s0.6,0.1,0.9,0.2
	s0.5,0.3,0.8,0.5l1.6-1.6c-0.4-0.4-0.9-0.7-1.5-0.9c-0.6-0.2-1.2-0.4-1.8-0.4s-1.3,0.1-1.9,0.3c-0.6,0.3-1.1,0.6-1.5,1
	c-0.5,0.4-0.8,0.9-1.1,1.4c-0.2,0.5-0.3,1.1-0.3,1.7s0.1,1.1,0.3,1.7C2,108.1,2.3,108.6,2.8,109z"/>
<title>STRONG_LOGO_WHITE</title>
<g id="Layer_3">
	<g>
		<g>
			<g>
				<g>
					<g>
						<path class="st0" d="M15.2,119.7v9.3h-0.8c-0.8,0-1.5-0.7-1.5-1.5v-7.8H10v-2h8.2v2H15.2L15.2,119.7z"/>
					</g>
					<g>
						<path class="st0" d="M25.7,129l-2.1-4.1H22v4.1h-2.1v-8.9c0-1.6,0.7-2.4,2.5-2.4h1.9c2.2,0,3.6,1.6,3.6,3.6c0,1.6-0.9,2.6-2,3
							l2.5,4.5h-2.6L25.7,129L25.7,129z M23.9,119.7h-1.1c-0.7,0-0.9,0.4-0.9,1.1v2.2H24c0.9,0,1.6-0.8,1.6-1.6
							C25.5,120.4,25,119.7,23.9,119.7z"/>
					</g>
					<g>
						<path class="st0" d="M38.2,123.7c0,3.7-1.3,5.4-4.5,5.4s-4.5-1.6-4.5-5.4v-0.8c0-3.4,1.3-5.2,4.5-5.2c3,0,4.5,1.7,4.5,5.2
							V123.7z M36.1,123.1c0-1.9-0.3-3.4-2.2-3.4s-2.2,1.6-2.2,3.4v0.5c0,1.7,0.1,3.4,2.2,3.4s2.2-1.7,2.2-3.4V123.1z"/>
					</g>
					<g>
						<path class="st0" d="M48.9,127.8c0,0.7-0.5,1.2-1.1,1.2c-0.5,0-1.2-0.1-1.7-1.2l-3.8-6.1v7.1h-2.1v-11.1h2.1l4.6,7.3v-7.3h2.2
							C48.9,117.8,48.9,127.8,48.9,127.8z"/>
					</g>
					<g>
						<path class="st0" d="M50.5,122.4c0-2.9,1.6-4.6,4.4-4.6c1.3,0,2.4,0.4,3.2,1.2c0.7,0.7,0.9,1.7,0.9,2.6h-2
							c0-1.3-0.8-1.9-2-1.9c-2.1,0-2.1,1.9-2.1,3.7s0,3.7,2.4,3.7c0.8,0,1.5-0.3,2-1.2v-0.8H56v-0.4c0-0.8,0.7-1.3,1.3-1.3h1.9v3
							c0,0.3,0,0.5-0.1,0.7c-0.8,1.3-2.2,2-3.7,2c-3.2,0-4.5-1.9-4.5-5.4L50.5,122.4L50.5,122.4z"/>
					</g>
				</g>
			</g>
			<g>
				<path class="st0" d="M4.5,129.5c-0.5,0-1.2-0.1-1.7-0.3c-0.5-0.3-1.1-0.5-1.3-0.8l1.5-1.5c0.1,0.1,0.4,0.3,0.7,0.4
					c0.4,0,0.7,0.1,0.9,0.1c0.3,0,0.5,0,0.8-0.1s0.5-0.3,0.7-0.4c0.3-0.3,0.4-0.5,0.5-0.8c0.1-0.1,0.1-0.4,0.1-0.7s0-0.5-0.1-0.8
					s-0.3-0.4-0.4-0.7l1.6-1.3c0.4,0.4,0.7,0.8,0.9,1.2c0.1,0.5,0.3,1.1,0.3,1.6s-0.1,1.1-0.3,1.6c-0.3,0.4-0.5,0.8-0.9,1.2
					s-0.9,0.7-1.3,0.8C5.7,129.4,5.2,129.5,4.5,129.5z"/>
			</g>
			<g>
				<path class="st0" d="M2.4,124.2c-0.4-0.4-0.7-0.8-0.9-1.3c-0.3-0.4-0.3-0.9-0.3-1.5c0-0.5,0.1-1.1,0.4-1.6
					c0.1-0.4,0.4-0.9,0.8-1.2s0.8-0.7,1.3-0.8c0.7-0.3,1.2-0.4,1.7-0.4s1.2,0.1,1.7,0.3c0.5,0.1,0.9,0.5,1.3,0.8L7,120.1
					c-0.1-0.3-0.4-0.4-0.7-0.5c-0.3,0-0.5-0.1-0.8-0.1s-0.7,0.1-0.9,0.1c-0.1,0.1-0.4,0.3-0.7,0.5c-0.1,0.1-0.3,0.4-0.4,0.5
					c-0.1,0.3-0.3,0.5-0.3,0.8s0,0.5,0.1,0.8s0.3,0.4,0.4,0.7L2.4,124.2z"/>
			</g>
		</g>
		<g>
			<g>
				<g>
					<path class="st0" d="M5.4,131.4C5.4,131.2,5.6,131.2,5.4,131.4l0.3-0.1l2.6,2.5l0,0v-2.4c0-0.1,0-0.1,0.1-0.1h0.8
						c0.1,0,0.1,0,0.1,0.1v4.5c0,0.1-0.1,0.1-0.1,0.1l0,0H9.1l-2.6-2.6l0,0v2.5c0,0.1,0,0.1-0.1,0.1H5.6c0,0-0.1,0-0.1-0.1
						L5.4,131.4L5.4,131.4z"/>
				</g>
				<g>
					<path class="st0" d="M14.7,135.7l2.1-4.5l0.1-0.1H17c0,0,0.1,0,0.1,0.1l2.1,4.5c0,0.1,0,0.1-0.1,0.1h-0.8c-0.1,0-0.1,0-0.3-0.1
						l-0.3-0.5H16l-0.3,0.5c0,0.1-0.1,0.1-0.3,0.1h-0.8C14.7,135.9,14.7,135.9,14.7,135.7z M17.5,134.3l-0.5-1.1l0,0l-0.5,1.1H17.5z
						"/>
				</g>
				<g>
					<path class="st0" d="M25.1,132.3h-0.9c-0.1,0-0.1-0.1-0.1-0.1v-0.8c0,0,0-0.1,0.1-0.1h2.9c0.1,0,0.1,0.1,0.1,0.1v0.8
						c0,0,0,0.1-0.1,0.1h-0.9v3.6c0,0,0,0.1-0.1,0.1h-0.8l-0.1-0.1C25.1,135.9,25.1,132.3,25.1,132.3z"/>
				</g>
				<g>
					<path class="st0" d="M34,131.4c0-0.1,0-0.1,0.1-0.1h0.8c0,0,0.1,0,0.1,0.1v4.4c0,0,0,0.1-0.1,0.1h-0.8l-0.1-0.1V131.4z"/>
				</g>
				<g>
					<path class="st0" d="M50.5,131.4C50.5,131.2,50.6,131.2,50.5,131.4l0.3-0.1l2.6,2.5l0,0v-2.4c0-0.1,0-0.1,0.1-0.1h0.8
						c0,0,0.1,0,0.1,0.1v4.5c0,0.1,0,0.1-0.1,0.1h-0.1h-0.1l-2.6-2.6l0,0v2.5c0,0.1,0,0.1-0.1,0.1h-0.8c0,0-0.1,0-0.1-0.1
						L50.5,131.4z"/>
				</g>
				<g>
					<g>
						<path class="st0" d="M44.3,133.1c0,0.1,0.1,0.4,0.1,0.5c0,0.8-0.7,1.3-1.3,1.3c-0.1,0-0.4,0-0.5-0.1l-0.8,0.8
							c0.4,0.3,0.8,0.4,1.3,0.4c1.3,0,2.4-1.1,2.4-2.4c0-0.5-0.1-0.9-0.4-1.3L44.3,133.1z"/>
					</g>
					<g>
						<path class="st0" d="M42,134.3c-0.1-0.1-0.1-0.4-0.1-0.7c0-0.7,0.7-1.3,1.3-1.3c0.3,0,0.5,0.1,0.7,0.1l0.8-0.8
							c-0.4-0.3-0.9-0.5-1.5-0.5c-1.3,0-2.4,1.1-2.4,2.4c0,0.5,0.1,1.1,0.5,1.5L42,134.3z"/>
					</g>
				</g>
			</g>
			<g>
				<path class="st0" d="M57.5,131.5v1.1h-0.3v-1.1H57v-0.3h0.8v0.3H57.5z M58.2,131.8v0.8h-0.3v-1.2h0.3l0.3,0.7l0.3-0.7H59v1.2
					h-0.3v-0.8l-0.1,0.5h-0.1L58.2,131.8z"/>
			</g>
		</g>
	</g>
</g>
<title>icon_ht-zumba</title>
<g>
	<path class="st0" d="M5.4,151.5c1-1.6,7-8.9,7-9.7c0-1.7-2.5-2.7-4.7-2.7c-2.6,0-6.7,1.5-6.6,2.2c0.2,0.7,1.6,0.8,2.6,0.8
		s4.3-1,4.8-1c0.2,0,1,0,1,0.3c0,0.7-7.4,7.5-7.4,10.5c0,1,1.1,1.7,2.4,1.7c2.9,0,8.9-2.1,8.6-3C12.8,149.7,7.5,151.3,5.4,151.5z"/>
	<path class="st0" d="M19.4,141.1c0-0.4-0.6-0.9-1-0.9c-0.9,0.1-0.8,0.3-1.1,0.6c-0.5,1.6-0.8,4.6-1.2,6.5c-0.1,0.3-0.4,2.2-0.8,2.1
		c-0.5-0.9-0.7-2-0.7-3.1c0-1.6,0.3-3.1,0.8-4.6c0.3-0.7,0.6-1.2,0.8-1.8v-0.1c0-1.1-0.8-1.3-1.8-1.3H14c-1.2,1.5-1.3,5.6-1.3,7.5
		c0,1.2,1,7.3,2.3,7.3c0.3,0,0.6,0.1,0.8,0.1c1.4,0,2.1-3.8,2.3-4.8c0.3-1.9,0.8-3.7,1.1-5.6C19.2,142.4,19.4,141.7,19.4,141.1z
		 M29.7,142.5c-1.6,0-3.2,4.4-3.8,5.6c-0.1-1.4,0-7-0.6-7.8c-0.5-0.6-0.9-0.8-1.6-0.8c-3.6,0-4.7,10.5-4.6,13.2v0.3
		c0.3,0.1,0.6,0.1,0.9,0.1c0.5,0,0.8-0.3,1.1-0.7c0.4-3.7,0.7-6.7,2.4-10.1c0.1,1.5-0.2,10.4,1.7,10.4c0.8,0,1.5-0.8,1.9-1.5
		c0.6-1.1,1.2-2.2,1.9-3.3c0.2,1.7,0.1,3.6,0.4,5.3c0.1,0.4,0.2,0.8,0.7,0.8s1.5-0.7,1.5-1.3c0-2.2-0.2-4.4-0.2-6.5
		C31.3,145.1,31.9,142.5,29.7,142.5z M35.8,145.7c0.5-0.7,4.6-2.5,4.3-5c-0.1-1.2-1.4-1.5-2.4-1.5c-1.1,0-5.5,0.3-5.5,1.7
		c0,0.4,0.1,0.8,0.1,1.2c0,0.9,0.1,1.8,0.1,2.7c0,2.2-0.1,5.4,0.5,6.5c0.1,0.2,0.4,0.4,0.6,0.4c0.4,0,1-0.2,1.7-0.5
		c-0.3-1.5-0.5-2.7-0.6-4c1.3,0.6,3.4,1.4,3.1,2.8c-0.2,0.8-0.8,1.2-3,1.9c-1,0.3-1.7,0.7-2.1,0.8c-0.2,0.1-0.5,0.2-0.5,0.5
		c0,0.5,1.2,0.8,1.6,0.9h1c1.6-0.1,5.6-1.9,5.6-3.7C40.6,147.3,38.1,146.6,35.8,145.7z M34.6,144.9v-2.1c0-0.4-0.1-1,0-1.4
		c0.7-0.4,1.7-0.5,2.4-0.5c0.3,0,0.8,0.1,0.8,0.6C37.8,142.4,35.8,143.6,34.6,144.9z M46.6,139.6c-0.4-0.5-0.9-0.6-1.6-0.6
		c-3,0-4,7.9-4,10.2c0,1.3,0.2,2.5,0.6,3.7H42c0.4,0,1.4-0.2,1.7-0.4c-0.1-0.8-0.3-1.5-0.4-2.3c0-0.3-0.1-0.5-0.1-0.8
		c1.1-0.2,1.9-0.1,3-0.3c0.5,2,0.9,3.3,2.9,4.3l0.3,0.1c0.6,0.1-0.7-2.5-1.1-6.1C48.1,145.2,48.1,141.4,46.6,139.6z M43.3,147.3
		c0-0.2,0.8-5.9,1.8-5.9c0.2,0,0.4,1.1,0.4,1.3c0.2,1.4,0.2,2.9,0.5,4.4C45.9,147.2,44.2,147.2,43.3,147.3z M48.6,140.1h0.2l0.3,0.5
		h0.2l-0.3-0.5c0.2,0,0.3-0.1,0.3-0.3s-0.1-0.4-0.4-0.4h-0.5v1.2h0.2V140.1z M48.6,139.5h0.3c0.1,0,0.3,0,0.3,0.2s-0.1,0.2-0.3,0.2
		h-0.2L48.6,139.5C48.7,139.5,48.6,139.5,48.6,139.5z"/>
	<path class="st0" d="M48.8,141c0.6,0,1-0.5,1-1c0-0.6-0.5-1-1-1c-0.6,0-1,0.5-1,1S48.2,141,48.8,141z M48.8,139.1
		c0.5,0,0.9,0.4,0.9,0.9s-0.4,0.9-0.9,0.9c-0.5-0.1-0.8-0.4-0.8-0.9S48.3,139.1,48.8,139.1z"/>
</g>
<title>icon_ht-zumbini</title>
<g id="Layer_3_2_">
	<g>
		<g id="JsX4io.tif">
			<g>
				<path class="st0" d="M25.9,163.7c2.1-1,3.5,0,4.2,1.4c0.2-0.4,0.5-0.7,0.8-1c0.8-0.8,1.7-1.1,2.8-1c1,0.1,1.6,0.9,2,1.7
					c0.7,1.3,0.9,2.7,1.2,4.1c0.2,1,0.3,2.1,0.4,3.1c0.1,0.6-0.3,1.1-0.9,1.1c-0.5,0-1-0.4-1-0.9c-0.1-1.9-0.3-3.7-0.9-5.5
					c-0.2-0.5-0.4-1.1-0.7-1.5c-0.2-0.3-0.4-0.3-0.7-0.3c-0.7,0.2-1.1,0.6-1.4,1.2c-0.5,1-0.7,2-0.7,3.1c0,0.8,0,1.5-0.2,2.3
					c-0.1,0.6-0.4,0.9-0.9,0.9c-0.5-0.1-0.8-0.5-0.8-1.1c0-1.6,0-3.2-0.5-4.8c-0.1-0.3-0.2-0.6-0.5-0.9c-0.3-0.3-0.6-0.5-1-0.4
					c-0.1,0-0.2,0-0.3,0c-0.8,0.1-0.8,0.2-0.9,1c-0.1,1.9-0.3,3.8-0.7,5.7c-0.1,0.4-0.3,0.6-0.7,0.6c-0.4,0-0.6-0.3-0.6-0.7
					c-0.1-2.6,0-5.2,0.5-7.8c0.1-0.3,0.1-0.5,0.2-0.8c0.2-0.2,0.4-0.3,0.7-0.2c0.3,0.1,0.4,0.3,0.5,0.6
					C25.8,163.5,25.8,163.6,25.9,163.7z"/>
				<path class="st0" d="M8.2,167.8c0.5-0.6,1.1-1.1,1.7-1.7c-1.5,0.3-2.9,0.5-4.3,0.7c-0.6,0.1-1.2,0.1-1.8,0.2
					c-0.2,0-0.4,0-0.6-0.1c-0.4-0.1-0.4-0.5-0.2-0.8c0.2-0.2,0.5-0.3,0.8-0.4c1.4-0.5,2.8-0.8,4.2-0.9c0.9-0.1,1.8-0.2,2.8-0.3
					c0.3,0,0.7-0.1,1,0.1c0.5,0.3,0.7,0.9,0.4,1.4c-0.3,0.5-0.7,1-1.1,1.5c-1.7,1.9-3.5,3.8-5.2,5.8c-0.1,0.1-0.1,0.2-0.2,0.3
					c0.4-0.1,0.7-0.3,1.1-0.4c1.6-0.6,3.1-1.1,4.8-1.4c0.5-0.1,0.9-0.1,1.4,0c0.2,0,0.5,0.1,0.5,0.4c0.1,0.3-0.1,0.4-0.3,0.5
					c-0.4,0.3-0.9,0.4-1.4,0.6c-1.8,0.7-3.6,1.3-5.5,1.9c-0.7,0.2-1.4,0.4-2.2,0.4c-0.2,0-0.4,0-0.6-0.1c-0.4-0.1-0.5-0.6-0.3-1
					c0.7-1.3,1.5-2.4,2.4-3.6c0.3-0.3,0.5-0.7,0.8-1c0-0.1,0.1-0.2,0.1-0.2c0.5-0.6,1-1.1,1.5-1.7C8.1,167.9,8.1,167.8,8.2,167.8z"
					/>
				<path class="st0" d="M52.6,163.2c0.7-0.8,1.6-1.3,2.7-1.5c1.8-0.4,3.1,0.4,3.9,2c0.5,1,0.8,2.1,1,3.3c0.2,1,0.3,2,0.3,3.1
					c0,0.6-0.1,1.1-0.5,1.5c-0.3,0.3-0.8,0.3-1.2,0c-0.3-0.4-0.5-0.8-0.5-1.2c-0.1-1.6-0.2-3.2-0.7-4.7c-0.1-0.4-0.3-0.9-0.5-1.2
					c-0.4-0.8-0.9-1-1.9-0.8c-1,0.2-1.8,0.8-2.3,1.7c-0.1,0.1-0.1,0.3-0.1,0.4c0.2,1.8,0.3,3.7,0,5.5c-0.1,0.4-0.3,0.6-0.6,0.6
					c-0.4,0-0.6-0.2-0.7-0.6c-0.4-1.6-0.6-3.3-0.6-5c0-0.6,0-1.2,0-1.8c0-0.8,0-1.6,0.2-2.4c0.1-0.3,0.3-0.6,0.6-0.6
					c0.3,0,0.6,0.2,0.6,0.5C52.5,162.4,52.6,162.8,52.6,163.2z"/>
				<path class="st0" d="M23.5,164.7c0,0.9-0.2,1.8-0.4,2.7c-0.3,1.3-0.8,2.6-1.7,3.7c-1,1.3-2.4,2-4,2c-2.2,0-3.5-1.3-4-3.3
					c-0.5-1.9-0.3-3.8,0.2-5.7c0.1-0.3,0.3-0.5,0.6-0.5c0.5-0.1,0.7,0.1,0.6,0.6c-0.2,1.4-0.2,2.7,0,4.1c0.1,0.5,0.2,1.1,0.4,1.6
					c0.6,1.3,1.5,1.5,2.7,1.2c1.1-0.3,1.8-1.1,2.3-2.1c0.6-1.2,0.9-2.5,1-3.9c0.1-0.5,0.1-1,0.3-1.5c0.1-0.3,0.2-0.5,0.5-0.6
					c0.4-0.3,0.9-0.1,1.1,0.3c0.1,0.2,0.1,0.3,0.2,0.5C23.4,164.2,23.4,164.5,23.5,164.7z"/>
				<path class="st0" d="M63.4,168c0.1,1.2,0.1,2.3-0.2,3.3c-0.1,0.4-0.3,0.6-0.6,0.6c-0.4,0-0.6-0.1-0.7-0.5
					c-0.2-0.6-0.4-1.3-0.5-2c-0.2-1.1-0.1-2.2-0.1-3.3c0-1.2,0-2.4,0.2-3.6c0-0.4,0.3-0.6,0.6-0.7c0.3,0,0.6,0.2,0.7,0.6
					c0.3,1.3,0.4,2.6,0.6,3.8C63.3,166.9,63.3,167.5,63.4,168z"/>
				<path class="st0" d="M49.6,166.5c0,0.2,0,0.5,0,0.7c0.1,1.6,0.1,3.2,0,4.8c0,0.4-0.3,0.6-0.6,0.7c-0.4,0-0.6-0.2-0.7-0.6
					c-0.1-0.7-0.2-1.3-0.2-2c-0.2-1.6-0.3-3.2-0.4-4.8c0-0.7,0-1.4,0.1-2.1c0.1-0.4,0.3-0.6,0.6-0.6c0.3,0,0.6,0.2,0.7,0.5
					C49.4,164.2,49.5,165.3,49.6,166.5z"/>
				<path class="st0" d="M20.4,161.1c0,0.2-0.1,0.5-0.2,0.7c-0.3,0.5-0.9,0.5-1.2,0c-0.2-0.4-0.2-1.1,0.1-1.5
					c0.2-0.3,0.5-0.3,0.7-0.2c0.3,0.1,0.5,0.4,0.6,0.7C20.4,160.9,20.4,161,20.4,161.1z"/>
				<path class="st0" d="M17.8,161.2c0,0.3-0.1,0.7-0.3,0.9c-0.2,0.3-0.6,0.4-0.9,0.1c-0.5-0.4-0.4-1.6,0.1-1.9
					c0.3-0.2,0.8-0.1,1,0.3C17.8,160.8,17.8,161,17.8,161.2z"/>
				<path class="st0" d="M47.1,167.3c-0.1-0.9-0.4-1.8-0.9-2.6c-1.4-2.1-4.2-2.8-6.4-1.6c-0.5,0.3-0.9,0.7-1.3,1.1
					c-0.1-0.4,0-0.6,0-0.9c0-0.7,0.1-1.5,0.1-2.2c0.1-1.1,0.2-2.1,0.3-3.1c0-0.4-0.2-0.7-0.4-0.8c-0.4-0.1-0.7,0.1-0.8,0.6
					c-0.1,0.4-0.2,0.8-0.3,1.2c-0.4,1.9-0.7,3.8-0.7,5.8c0,1.4,0,2.7,0.4,4c0.5,1.5,1.4,2.7,2.8,3.4c1.2,0.6,2.5,0.7,3.8,0.5
					c1.5-0.3,2.6-1.2,3.1-2.7C47.2,169,47.2,168.2,47.1,167.3z M45,168.7c-0.2,1.2-0.9,1.9-2.2,2c-1.1,0.1-2.1-0.2-2.9-1
					c-0.6-0.6-0.9-1.4-1.2-2.3c-0.1-0.5,0-0.9,0.3-1.3c0.5-0.8,1.1-1.4,2.1-1.7c0.2-0.1,0.5-0.1,0.7-0.1c1.4-0.1,2.9,1.1,3.1,2.5
					C45.1,167.4,45.1,168.1,45,168.7z"/>
			</g>
		</g>
		<g>
			<path class="st0" d="M66.3,170.6c0,0.5-0.3,0.9-0.8,0.9c-0.5,0-0.9-0.3-0.9-0.8c0-0.5,0.3-0.9,0.8-0.9
				C65.9,169.8,66.3,170.1,66.3,170.6z M64.8,170.7c0,0.4,0.3,0.7,0.7,0.6c0.4,0,0.6-0.3,0.6-0.7c0-0.4-0.3-0.7-0.7-0.7
				C65,170,64.7,170.3,64.8,170.7z M65.3,171.1l-0.2,0l0-0.9c0.1,0,0.2,0,0.3,0c0.2,0,0.2,0,0.3,0c0,0,0.1,0.1,0.1,0.2
				c0,0.1-0.1,0.2-0.2,0.2l0,0c0.1,0,0.1,0.1,0.2,0.2c0,0.1,0.1,0.2,0.1,0.2l-0.2,0c0,0,0-0.1-0.1-0.2c0-0.1-0.1-0.1-0.2-0.1l-0.1,0
				L65.3,171.1z M65.3,170.6L65.3,170.6c0.2,0,0.3-0.1,0.3-0.1c0-0.1-0.1-0.1-0.2-0.1c-0.1,0-0.1,0-0.1,0L65.3,170.6z"/>
		</g>
	</g>
</g>
</svg>