
<svg version="1.1" id="icon_brand-zumba" xmlns="http://www.w3.org/2000/svg" xmlns:xlink="http://www.w3.org/1999/xlink" x="0px"
	 y="0px" width="101px" height="95px" viewBox="0 0 101 95" style="enable-background:new 0 0 101 95;" xml:space="preserve">
<style type="text/css">
	.st0{fill:#FFFFFF;}
	.st1{clip-path:url(#SVGID_2_);fill:#FFFFFF;}
</style>
<title>icon_brand-strong</title>
<g>
	<path class="st0" d="M63.9,6.7c0.1-0.1,0.4-0.3,0.4-0.6c0-0.5-0.3-0.8-0.8-0.8h-1.2v2.1c0,0.5,0.2,0.7,0.9,0.7h0.4
		c0.5,0,0.8-0.3,0.8-0.8C64.3,6.9,64,6.7,63.9,6.7z M62.7,5.8h0.6c0.2,0,0.3,0.1,0.3,0.3c0,0.2-0.1,0.3-0.3,0.3h-0.6
		C62.7,6.4,62.7,5.8,62.7,5.8z M63.4,7.6h-0.3c-0.2,0-0.4-0.1-0.4-0.3V6.9h0.6c0.3,0,0.3,0.2,0.3,0.4C63.7,7.5,63.6,7.6,63.4,7.6z
		 M66,6.4l-0.5-1.1h-0.6L65.8,7v1.1h0.5V7l0.9-1.7h-0.6L66,6.4z M69.3,5.1h2l-2,2.9c-0.1,0.2-0.2,0.4-0.2,0.6c0,0.4,0.3,0.7,0.8,0.7
		h2.5V8.4h-2.3L72.5,5V4.3h-3.2C69.3,4.3,69.3,5.1,69.3,5.1z M77.5,7.5c0,0.6-0.4,0.9-0.9,0.9s-0.9-0.3-0.9-0.9V4.3h-1v3.3
		c0,1.1,0.9,1.8,1.9,1.8s1.9-0.6,1.9-1.8V4.3h-1C77.5,4.3,77.5,7.5,77.5,7.5z M83.1,7.2l-1.4-2.9h-1v5h1v-3l0.9,1.9
		c0.1,0.3,0.3,0.4,0.5,0.4s0.4-0.1,0.5-0.4l0.9-1.9v3h1v-5h-1L83.1,7.2z M90.9,6.7c0.3-0.1,0.6-0.5,0.6-1c0-0.9-0.5-1.4-1.4-1.4H88
		V8c0,1,0.4,1.3,1.5,1.3h0.7c0.9,0,1.4-0.5,1.4-1.4C91.6,7.1,91.2,6.8,90.9,6.7z M88.9,5.1H90c0.4,0,0.5,0.2,0.5,0.5
		S90.4,6.2,90,6.2h-1.1C88.9,6.2,88.9,5.1,88.9,5.1z M90.1,8.4h-0.5c-0.4,0-0.6-0.1-0.6-0.5V7.1h1.1c0.4,0,0.5,0.3,0.5,0.7
		C90.6,8.1,90.5,8.4,90.1,8.4z M95.7,4.3c-0.2,0-0.4,0.1-0.6,0.4l-1.6,4.6h1l0.3-0.9h1.7l0.3,0.9h1l-1.6-4.6
		C96,4.3,95.9,4.3,95.7,4.3z M95,7.6l0.6-2l0.6,2H95z M98.7,5.6c-0.4,0-0.6-0.2-0.6-0.6s0.2-0.6,0.6-0.6s0.6,0.2,0.6,0.6
		C99.3,5.4,99.1,5.6,98.7,5.6z M98.7,4.4c-0.4,0-0.5,0.2-0.5,0.5c0,0.3,0.1,0.5,0.5,0.5s0.5-0.2,0.5-0.5C99.3,4.6,99.1,4.4,98.7,4.4
		z M98.8,5.3L98.7,5h-0.1v0.2h-0.2V4.8c0-0.1,0-0.2,0.2-0.2h0.1c0.1,0,0.2,0.1,0.2,0.2s0,0.2-0.1,0.2C98.8,5.1,98.9,5.2,98.8,5.3
		L98.8,5.3z M98.7,4.8L98.7,4.8L98.7,4.8L98.7,4.8C98.8,4.9,98.8,4.9,98.7,4.8C98.8,4.8,98.8,4.8,98.7,4.8z M9.9,3.3h3v7.8
		c0,0.8,0.6,1.4,1.4,1.4h0.8V3.3h3v-2H9.9V3.3z M27.6,4.9c0-2-1.3-3.6-3.6-3.6h-1.9c-1.9,0-2.5,0.8-2.5,2.4v8.8h2.2V8.3h1.6l2.2,4.1
		H28L25.5,8C26.6,7.6,27.6,6.5,27.6,4.9z M23.8,6.5h-2.1V4.2c0-0.6,0.3-1,1-1h1.1c1,0,1.6,0.6,1.6,1.6S24.7,6.5,23.8,6.5z M33.6,1.2
		c-3.1,0-4.4,1.7-4.4,5.1v0.8c0,3.8,1.3,5.4,4.4,5.4S38,10.9,38,7.2V6.4C38,3,36.7,1.2,33.6,1.2z M35.9,7.2c0,1.7-0.2,3.5-2.3,3.5
		S31.4,9,31.3,7.2V6.6c0-1.9,0.2-3.4,2.3-3.4c2,0,2.3,1.6,2.3,3.4V7.2z M46.5,8.6l-4.6-7.3h-2.1v11.2H42V5.3l3.9,6
		c0.6,1.1,1.3,1.3,1.8,1.3c0.6,0,1.1-0.6,1.1-1.3v-10h-2.2L46.5,8.6C46.6,8.6,46.5,8.6,46.5,8.6z M55.5,8.3v0.5h1.3v0.8
		c-0.4,0.9-1.1,1.2-1.9,1.2c-2.3,0-2.3-1.9-2.3-3.7c0-1.9,0-3.7,2.1-3.7c1.2,0,2,0.5,2,1.9h2c0-0.9-0.2-1.9-0.9-2.6
		c-0.8-0.8-1.9-1.2-3.2-1.2c-2.8,0-4.4,1.7-4.4,4.6v1.4c0,3.5,1.3,5.3,4.5,5.3c1.6,0,3-0.6,3.7-1.9c0.1-0.2,0.2-0.5,0.2-0.7v-3h-1.9
		C56.1,6.9,55.5,7.5,55.5,8.3z M7.4,6.3L5.9,7.6C6.1,7.8,6.2,8,6.3,8.3C6.4,8.5,6.5,8.8,6.5,9c0,0.3-0.1,0.5-0.2,0.8
		c-0.1,0.2-0.2,0.4-0.4,0.6c-0.2,0.2-0.5,0.3-0.7,0.4C4.9,10.9,4.6,11,4.3,11s-0.6-0.1-0.8-0.2c-0.3-0.1-0.5-0.2-0.7-0.4l-1.5,1.4
		c0.4,0.4,0.9,0.6,1.4,0.8C3.2,12.9,3.8,13,4.4,13s1.2-0.1,1.7-0.3s1-0.5,1.4-0.8c0.4-0.4,0.7-0.8,0.9-1.2c0.2-0.5,0.3-1,0.3-1.5
		s-0.1-1-0.3-1.5C8.2,7.1,7.8,6.7,7.4,6.3z M2.2,7.7l1.6-1.3C3.6,6.2,3.5,6,3.4,5.7C3.3,5.5,3.2,5.2,3.2,5c0-0.2,0.1-0.5,0.2-0.8
		C3.5,4,3.6,3.8,3.8,3.6C4,3.4,4.3,3.3,4.5,3.2C4.8,3.1,5.1,3,5.4,3C5.7,3,6,3.1,6.2,3.2c0.3,0.1,0.5,0.2,0.7,0.4l1.5-1.4
		C8,1.8,7.5,1.5,7,1.3S5.9,1,5.3,1S4.2,1.1,3.6,1.3c-0.5,0.2-1,0.5-1.4,0.8C1.8,2.5,1.5,2.9,1.3,3.4S1,4.4,1,4.9s0.1,1,0.3,1.5
		S1.8,7.3,2.2,7.7z"/>
</g>
<title>STRONG_LOGO_WHITE</title>
<g>
	<g transform="translate(8)">
		<path class="st0" d="M7.1,17.5v9.3H6.3c-0.8,0-1.4-0.6-1.4-1.4v-7.9h-3v-2h8.2v2C10.1,17.5,7.1,17.5,7.1,17.5z M17.6,26.7
			l-2.2-4.2h-1.6v4.2h-2.2v-8.8c0-1.6,0.7-2.4,2.5-2.4H16c2.3,0,3.6,1.6,3.6,3.6c0,1.6-1,2.7-2.1,3.1l2.5,4.5H17.6z M15.9,17.5h-1.1
			c-0.7,0-1,0.4-1,1v2.3h2.1c1,0,1.6-0.8,1.6-1.6C17.5,18.1,16.9,17.5,15.9,17.5z M30.3,21.5c0,3.8-1.4,5.4-4.5,5.4
			c-3.2,0-4.5-1.6-4.5-5.4v-0.9c0-3.4,1.3-5.2,4.5-5.2c3.1,0,4.5,1.8,4.5,5.2C30.3,20.6,30.3,21.5,30.3,21.5z M28.1,20.8
			c0-1.9-0.3-3.5-2.3-3.5c-2.1,0-2.3,1.6-2.3,3.5v0.6c0,1.7,0.1,3.5,2.3,3.5c2.1,0,2.3-1.7,2.3-3.5C28.1,21.4,28.1,20.8,28.1,20.8z
			 M41,25.6c0,0.7-0.5,1.3-1.1,1.3c-0.5,0-1.2-0.1-1.8-1.3l-3.9-6.1v7.2H32V15.5h2.1l4.6,7.4v-7.4H41V25.6z M42.6,20.1
			c0-2.9,1.6-4.7,4.4-4.7c1.3,0,2.4,0.4,3.2,1.2c0.7,0.7,0.9,1.7,0.9,2.6H49c0-1.3-0.8-1.9-2-1.9c-2.1,0-2.1,1.9-2.1,3.8
			c0,1.9,0,3.8,2.3,3.8c0.8,0,1.5-0.3,1.9-1.2V23h-1.4v-0.5c0-0.8,0.6-1.4,1.4-1.4H51v3c0,0.3-0.1,0.5-0.2,0.7
			c-0.8,1.3-2.2,1.9-3.8,1.9c-3.2,0-4.5-1.8-4.5-5.4L42.6,20.1L42.6,20.1z"/>
	</g>
	<path class="st0" d="M4.4,27.3c-0.6,0-1.2-0.1-1.7-0.3s-1-0.5-1.4-0.8l1.5-1.5C3,24.8,3.2,25,3.5,25.1c0.3,0.1,0.6,0.2,0.8,0.2
		c0.2,0,0.6-0.1,0.8-0.2c0.3-0.1,0.6-0.3,0.8-0.4c0.2-0.2,0.3-0.4,0.4-0.7c0.1-0.2,0.2-0.5,0.2-0.8c0-0.3-0.1-0.5-0.2-0.8
		c-0.1-0.1-0.2-0.4-0.4-0.5l1.6-1.4c0.4,0.4,0.7,0.8,0.9,1.3c0.2,0.5,0.3,1,0.3,1.5s-0.1,1.1-0.3,1.5c-0.2,0.5-0.5,0.9-0.9,1.3
		c-0.4,0.4-0.9,0.7-1.4,0.9C5.5,27.2,5,27.3,4.4,27.3z M2.2,21.9c-0.4-0.3-0.7-0.7-0.9-1.2S1,19.7,1,19.2s0.1-1.1,0.3-1.5
		c0.2-0.5,0.5-0.9,0.9-1.3s0.9-0.7,1.4-0.9s1.1-0.3,1.7-0.3s1.2,0.1,1.7,0.3s1,0.5,1.4,0.8l-1.5,1.5c-0.2-0.2-0.4-0.3-0.7-0.4
		c-0.3-0.1-0.5-0.2-0.8-0.2s-0.6,0.1-0.9,0.2c-0.2,0.1-0.5,0.2-0.7,0.4c-0.2,0.2-0.3,0.4-0.4,0.6c-0.2,0.3-0.2,0.5-0.2,0.8
		c0,0.3,0.1,0.5,0.2,0.8c0.1,0.2,0.3,0.4,0.5,0.6L2.2,21.9z"/>
	<g transform="translate(2 14)">
		<path class="st0" d="M1.1,15.1C1.1,15,1.2,15,1.3,15h0.2l2.7,2.6v-2.4c0-0.1,0.1-0.1,0.1-0.1H5c0.1,0,0.1,0.1,0.1,0.1v4.5
			c0,0.1-0.1,0.1-0.1,0.1H4.9H4.8l-2.6-2.7v2.5c0,0.1-0.1,0.1-0.1,0.1H1.3c-0.1,0-0.1-0.1-0.1-0.1L1.1,15.1z M10.5,19.6l2.1-4.5
			l0.1-0.1h0.1c0,0,0.1,0,0.1,0.1l2.1,4.5c0,0.1,0,0.2-0.1,0.2h-0.7c-0.1,0-0.2,0-0.2-0.2L13.6,19h-1.8l-0.2,0.5
			c0,0.1-0.1,0.2-0.2,0.2h-0.7C10.5,19.7,10.4,19.7,10.5,19.6z M13.2,18.1L12.7,17l-0.5,1.1H13.2z M20.9,16h-1
			c-0.1,0-0.1-0.1-0.1-0.1v-0.7c0-0.1,0.1-0.1,0.1-0.1h3c0.1,0,0.1,0.1,0.1,0.1v0.7c0,0.1,0,0.1-0.1,0.1h-1v3.6
			c0,0.1-0.1,0.1-0.1,0.1H21c-0.1,0-0.1-0.1-0.1-0.1V16z M29.8,15.2c0-0.1,0.1-0.1,0.1-0.1h0.8c0.1,0,0.1,0.1,0.1,0.1v4.4
			c0,0.1-0.1,0.1-0.1,0.1h-0.8c-0.1,0-0.1-0.1-0.1-0.1V15.2z M46.5,15.1c0-0.1,0.1-0.1,0.1-0.1h0.2l2.7,2.6v-2.4
			c0-0.1,0.1-0.1,0.1-0.1h0.8c0.1,0,0.1,0.1,0.1,0.1v4.5c0,0.1-0.1,0.1-0.1,0.1h-0.1h-0.1l-2.6-2.7v2.5c0,0.1-0.1,0.1-0.1,0.1h-0.8
			c-0.1,0-0.1-0.1-0.1-0.1L46.5,15.1z"/>
		<g transform="translate(35)">
			<path class="st0" d="M5.3,16.9c0.1,0.2,0.1,0.3,0.1,0.5c0,0.7-0.6,1.3-1.3,1.3c-0.2,0-0.4,0-0.5-0.1l-0.8,0.8
				c0.4,0.2,0.8,0.4,1.3,0.4c1.3,0,2.4-1.1,2.4-2.4c0-0.5-0.1-0.9-0.4-1.3C6.1,16.1,5.3,16.9,5.3,16.9z M2.9,18.1
				c-0.1-0.2-0.2-0.4-0.2-0.7c0-0.7,0.6-1.3,1.3-1.3c0.2,0,0.5,0.1,0.7,0.2l0.8-0.8C5.1,15.2,4.6,15,4,15c-1.3,0-2.4,1.1-2.4,2.4
				c0,0.5,0.2,1,0.5,1.5C2.1,18.9,2.9,18.1,2.9,18.1z"/>
		</g>
		<path class="st0" d="M53.6,15.3v1h-0.3v-1h-0.2v-0.2h0.7v0.2H53.6z M54.2,15.6v0.7H54V15h0.2l0.2,0.7l0.2-0.7h0.2v1.3h-0.2v-0.7
			l-0.2,0.5h-0.1C54.3,16.1,54.2,15.6,54.2,15.6z"/>
	</g>
</g>
<title>icon_brand-zumba</title>
<g transform="translate(-1)">
	<path class="st0" d="M6.2,49.1c1-1.6,6.9-8.8,6.9-9.6c0-1.7-2.5-2.6-4.6-2.6c-2.6,0-6.6,1.5-6.5,2.2c0.1,0.7,1.5,0.8,2.5,0.8
		s4.2-1,4.7-1c0.2,0,1,0,1,0.3C10.3,39.9,3,46.6,3,49.5c0,0.9,1.1,1.7,2.4,1.7c2.8,0,8.8-2.1,8.5-3C13.5,47.3,8.3,48.9,6.2,49.1z"/>
	<path class="st0" d="M20,38.9c0-0.4-0.5-0.9-0.9-0.9c-1,0-0.9,0.3-1.1,0.5c-0.5,1.6-0.8,4.6-1.2,6.4c-0.1,0.3-0.4,2.1-0.8,2
		c-0.5-0.9-0.7-2-0.7-3.1c0-1.5,0.3-3.1,0.8-4.5c0.2-0.5,0.5-1.1,0.7-1.6v-0.1c0-1.1-0.8-1.3-1.7-1.3h-0.4c-1.2,1.4-1.3,5.5-1.3,7.4
		c0,1.1,1,7.2,2.3,7.2c0.3,0,0.6,0.1,0.8,0.1c1.4,0,2.1-3.7,2.3-4.7c0.3-1.8,0.8-3.6,1.1-5.5C19.8,40.2,20,39.5,20,38.9z M30.2,40.3
		c-1.6,0-3.1,4.3-3.8,5.5c-0.1-1.4,0-6.9-0.6-7.7c-0.5-0.6-0.8-0.7-1.6-0.7c-3.5,0-4.6,10.3-4.6,13v0.3c0.3,0.1,0.6,0.1,0.8,0.1
		c0.5,0,0.8-0.3,1.1-0.7c0.4-3.6,0.7-6.6,2.4-9.9c0.1,1.5-0.2,10.3,1.7,10.3c0.8,0,1.5-0.8,1.8-1.4c0.6-1.1,1.2-2.2,1.9-3.2
		c0.2,1.7,0.1,3.5,0.4,5.2c0.1,0.4,0.2,0.8,0.7,0.8s1.5-0.7,1.5-1.3c0-2.1-0.2-4.3-0.2-6.4C31.8,42.9,32.3,40.3,30.2,40.3z
		 M36.2,43.4c0.5-0.7,4.5-2.5,4.2-5c-0.1-1.2-1.4-1.5-2.4-1.5c-1.1,0-5.4,0.3-5.4,1.7c0,0.4,0.1,0.8,0.1,1.2c0,0.9,0.1,1.7,0.1,2.7
		c0,2.1-0.1,5.3,0.5,6.4c0.1,0.2,0.4,0.3,0.6,0.4c0.4,0,1-0.2,1.7-0.5c-0.3-1.5-0.5-2.7-0.6-3.9c1.3,0.6,3.3,1.4,3,2.8
		c-0.2,0.8-0.8,1.2-2.9,1.9c-1,0.3-1.7,0.7-2.1,0.8c-0.2,0.1-0.5,0.2-0.5,0.5c0,0.5,1.2,0.8,1.5,0.8h1c1.6-0.1,5.5-1.9,5.5-3.6
		C40.9,45,38.4,44.3,36.2,43.4z M35,42.6v-2.1c0-0.4-0.1-1,0-1.3c0.6-0.4,1.6-0.5,2.3-0.5c0.3,0,0.8,0.1,0.8,0.6
		C38.1,40.1,36.2,41.4,35,42.6z M46.8,37.5c-0.4-0.5-0.9-0.6-1.5-0.6c-3,0-3.9,7.8-3.9,10.1c0,1.2,0.2,2.5,0.6,3.7h0.4
		c0.4,0,1.3-0.2,1.7-0.4c-0.1-0.8-0.3-1.5-0.4-2.3c0-0.3-0.1-0.5-0.1-0.8c1-0.2,1.9-0.1,2.9-0.3c0.5,2,0.9,3.3,2.8,4.3l0.3,0.1
		c0.6,0.1-0.7-2.5-1.1-6.1C48.3,43,48.3,39.2,46.8,37.5z M43.5,45c0-0.2,0.8-5.8,1.7-5.8c0.2,0,0.4,1.1,0.4,1.3
		c0.2,1.4,0.2,2.9,0.5,4.3C46.1,44.9,44.4,44.9,43.5,45z M48.7,37.9h0.2l0.3,0.5h0.2l-0.3-0.5c0.2,0,0.3-0.1,0.3-0.3
		c0-0.2-0.1-0.3-0.4-0.3h-0.5v1.2h0.2C48.7,38.5,48.7,37.9,48.7,37.9z M48.7,37.4H49c0.1,0,0.3,0,0.3,0.2c0,0.2-0.1,0.2-0.3,0.2
		h-0.2L48.7,37.4C48.8,37.4,48.7,37.4,48.7,37.4z"/>
	<path class="st0" d="M49,38.8c0.6,0,1-0.5,1-1c0-0.6-0.5-1-1-1s-1,0.5-1,1C47.9,38.4,48.4,38.8,49,38.8z M49,36.9
		c0.5,0,0.8,0.4,0.8,0.9s-0.4,0.8-0.8,0.8c-0.5,0-0.8-0.4-0.8-0.9S48.5,36.9,49,36.9z"/>
</g>
<g>
	<g id="Original_Layer_5_Layer_7_ZUMBA_Levels_1_Image">
		<path class="st0" d="M19,67.7L19,67.7c0,0,0-0.1,0-0.1l0,0C19.1,67.6,19.1,67.7,19,67.7z"/>
		<path class="st0" d="M19,67.6L19,67.6L19,67.6L19,67.6z"/>
		<path class="st0" d="M31.4,63.6L31.4,63.6L31.4,63.6L31.4,63.6L31.4,63.6z"/>
		<path class="st0" d="M32.1,61.2h0.1l0,0H32.1z"/>
		<path class="st0" d="M37.4,72.4L37.4,72.4L37.4,72.4z"/>
		<path class="st0" d="M37.3,72.4C37.3,72.4,37.3,72.4,37.3,72.4L37.3,72.4C37.4,72.4,37.4,72.3,37.3,72.4z"/>
		<path class="st0" d="M19,67.6L19,67.6c0,0,0,0.1,0,0.1l0,0C19,67.7,19,67.6,19,67.6z"/>
		<path class="st0" d="M19.1,67.8c0-0.1,0-0.1-0.1-0.1l0,0C19.1,67.7,19.2,67.7,19.1,67.8z"/>
		<path class="st0" d="M13.4,59.9L13.4,59.9c0.1,0,0.1,0,0.1-0.1c0-0.1,0.1-0.2,0.1-0.2c0,0,0,0,0,0s0,0,0,0
			c-0.1-0.1-0.1-0.1-0.1-0.3c0-0.1,0-0.1,0-0.1c0,0-0.1-0.1-0.1-0.1c0,0-0.1-0.1-0.1-0.1c0,0,0-0.1-0.1-0.1c-0.1,0-0.1,0-0.2,0
			c0,0,0,0,0,0c0-0.1,0-0.1-0.1-0.1l0,0.1c-0.2,0-0.4,0.1-0.5,0.2l0.1,0c-0.1,0.1-0.2,0.1-0.2,0c0,0,0,0,0,0c-0.1,0-0.2,0.2-0.3,0.2
			c0,0,0,0.1,0,0.1c0,0.1,0,0.1,0,0.2c0,0.1,0,0.1,0,0.2c0,0,0,0.1,0,0.2c0,0,0,0,0,0H12l0,0l0,0.1c-0.1,0-0.1,0-0.1,0
			c0,0,0,0,0-0.1l0,0c-0.1,0-0.2,0.2-0.3,0.3l-0.1,0.1l0,0l0.1,0.1c-0.1,0-0.1,0.1-0.1,0.1c0,0.1,0,0,0,0.1l-0.2,0.2l0,0.1l-0.1,0
			c0.1,0.1-0.1,0.2,0,0.3c-0.1,0.1-0.1,0.1-0.1,0.2c0,0.1,0,0.2,0,0.3c0,0.1,0,0.2,0,0.3c0,0.1,0,0.1,0,0.2c0,0.1,0,0.1-0.1,0.2
			c-0.1,0,0,0.1,0,0.2c-0.1,0.1-0.1,0.2-0.1,0.4c0,0.1,0,0.2,0,0.3c0,0.1,0,0.2,0,0.2c0,0,0,0,0,0c0,0,0,0.1,0,0.1c0,0,0,0.1,0,0.1
			l0,0.3c0,0,0,0,0,0c-0.1,0.1-0.1,0.3,0,0.5c0,0.1,0,0.1,0,0.2c0,0-0.1,0.1,0,0.2c0,0.1,0,0.1,0,0.2c0,0.1,0,0.1,0,0.2
			c0,0,0,0.1,0,0.1c0,0.1-0.1,0.2,0,0.3c0,0.1,0,0.2,0,0.3c0,0.1,0,0.2,0,0.3c0,0.1,0,0.2,0.1,0.3c0,0.1,0,0.1,0,0.2
			c0,0.1,0,0.2,0,0.3c0,0,0,0.1,0,0.1c0,0.1,0,0.2,0,0.3c0,0,0,0.1,0,0.1c0,0.1,0,0.2,0,0.4c0,0,0,0.1,0,0.1c0,0,0.1,0.1,0.1,0.2
			s0,0-0.1,0c-0.1,0.1-0.1,0.2-0.1,0.3c0,0.1,0,0.1,0,0.2c0,0.1,0,0.2,0,0.4c0,0.1,0,0.1,0,0.2c0,0.2-0.1,0.4,0,0.6c0,0,0,0.1,0,0.1
			c0,0.1-0.1,0.2-0.2,0.3c-0.1,0.1-0.1,0.1-0.2,0c0-0.1-0.1-0.1-0.1-0.2c0-0.1-0.1-0.2-0.1-0.3c0-0.1-0.1-0.3-0.1-0.4
			C10,69.3,9.9,69.2,9.9,69c-0.1-0.1,0-0.2-0.1-0.3c0,0,0,0,0,0c0-0.1,0-0.2-0.1-0.3c0-0.1,0-0.2,0-0.2c-0.1-0.2-0.2-0.4-0.3-0.6
			c0,0,0-0.1,0-0.1l-0.1-0.2c0,0,0,0,0-0.1c-0.1-0.3-0.3-0.5-0.4-0.7c0,0-0.1,0-0.1-0.1c0,0,0-0.1,0-0.1c-0.1-0.1-0.2-0.2-0.3-0.3
			C8.2,66,8,65.9,7.9,65.9c-0.1,0-0.2,0-0.3,0c0,0-0.1,0-0.1,0c-0.1,0-0.1,0.1-0.2,0.2c-0.1,0.2-0.3,0.3-0.4,0.5c0,0,0,0,0,0
			c-0.1,0.1-0.1,0.1-0.2,0.1c-0.2,0.1-0.3,0.3-0.4,0.5l0,0c-0.1,0.1-0.1,0.2-0.2,0.3S6,67.8,6,67.9c-0.1,0.1-0.1,0.2-0.1,0.2
			c0,0.1,0,0.1-0.1,0.2c0,0.1-0.1,0.2-0.1,0.3c-0.1,0.2-0.2,0.3-0.3,0.5c0,0-0.1,0.1-0.1,0.1c0,0,0-0.1,0-0.1c0-0.2,0-0.5,0-0.7
			c0-0.1,0-0.3,0-0.4c0-0.1,0-0.2,0-0.3c0-0.2,0-0.3,0-0.5c0,0,0-0.1,0-0.1c0-0.2-0.1-0.4-0.1-0.7c0-0.1,0-0.1,0-0.2
			c0-0.1,0-0.2,0-0.3c0-0.1,0-0.1,0-0.2c0-0.1,0-0.1,0-0.2c0,0,0-0.1,0-0.1C5,65.1,5,65,4.9,64.8s0-0.4-0.1-0.6
			c0-0.1-0.1-0.3-0.1-0.4c0,0,0-0.1,0-0.1c0,0,0-0.1,0-0.1c0-0.2-0.1-0.3-0.1-0.5c0-0.1,0-0.1,0-0.2c0-0.1-0.1-0.3-0.1-0.4
			c0-0.2-0.1-0.3-0.2-0.5c0,0-0.1,0-0.1,0l-0.3-0.2c-0.2-0.1-0.4-0.2-0.6,0c0,0,0,0,0,0c0,0,0,0-0.1,0c0,0-0.1,0-0.1,0
			c-0.1,0-0.1,0-0.2,0.1c0,0,0,0-0.1,0c-0.1,0-0.1,0.1-0.2,0.1c0,0,0,0-0.1,0.1c-0.1,0-0.1,0.1-0.2,0.2c0,0,0,0.1,0,0.1
			c0,0-0.1,0-0.1,0.1c0,0-0.1,0.1-0.1,0.1c0,0-0.1,0-0.1,0c0,0-0.1,0.1-0.1,0.1c0,0-0.1,0.1-0.1,0.2c0,0.2-0.2,0.3-0.3,0.4
			c0,0.1-0.1,0.1-0.2,0.2c-0.1,0.1-0.1,0.1-0.2,0.2c0,0.1-0.1,0.2-0.1,0.2C1.1,63.8,1,63.9,1,64c0,0.1,0,0.1-0.1,0.2
			c0,0,0,0-0.1,0.1c0,0.1-0.1,0.2-0.2,0.3c-0.1,0.1-0.1,0.2-0.1,0.3c0,0.1,0,0.2-0.1,0.2c0,0,0,0.1,0,0.1c0,0,0,0.1,0,0.1
			c0,0.1,0,0.2,0,0.3c-0.1,0-0.1,0.1-0.1,0.2c0,0.1,0,0.2,0,0.3c-0.1,0.1-0.1,0.3,0,0.4c0,0.1,0.1,0.2,0,0.2c0,0.1,0,0.1,0,0.1
			s-0.1,0.1,0,0.2c0,0.1,0,0.1,0.1,0.2s0.1,0.1,0,0.2c0,0.1-0.1,0.1-0.2,0.1c0,0.1,0,0.1,0,0.2c0,0.1,0,0.2,0,0.3
			c0.1,0,0.1,0,0.1,0.2l-0.1,0.3l0.1,0.1c-0.1,0-0.1,0-0.1,0.1h0.1c0,0.1,0,0.1,0,0.2c0,0.1,0,0.1-0.1,0.1c0,0.1,0.1,0.2,0.1,0.3
			c0,0.1,0,0.1,0,0.1l-0.1,0c0,0.1,0,0.2-0.1,0.2c0,0,0,0.1-0.1,0.1c0.1,0,0.1,0,0.1,0.1c0,0.1,0,0.2,0.1,0.2L0.3,70l0,0h0l0.1,0.3
			l-0.1,0.1c0.1,0,0.1,0.1,0,0.2s0,0.1,0,0.1v0c0,0,0,0,0-0.1c0.1,0.1,0.1,0.1,0,0.2c0,0,0,0,0,0c0,0.1,0,0.3-0.1,0.4l0.1,0.1
			c0,0.1,0,0.2,0,0.2c0,0.1-0.1,0.1-0.2,0.2c0,0-0.1,0.1-0.1,0.1v0c0-0.1,0.1-0.1,0.1,0l0.1,0.1c0,0.1,0,0.1,0,0.1c0,0,0,0.1,0,0.1
			c0,0.1,0,0.1,0,0.2c0,0.1,0,0.2,0,0.3l0,0c0,0.2,0,0.4,0.1,0.6l-0.1,0.1c-0.1,0-0.1,0.1-0.1,0.2c0,0.1,0,0.2,0.1,0.2c0,0,0,0,0,0
			c0.1,0,0.1,0.1,0.1,0.2c0,0,0,0,0,0c0,0,0,0,0,0c0.1,0.2,0,0.2-0.1,0.3c0,0-0.1,0.1,0,0.1c0,0,0,0.1,0.1,0.1c0,0,0.1,0,0.1,0
			c0,0.1,0,0.1,0,0.1c0,0,0,0.1,0,0.1c0,0.1,0,0.1,0,0.1S0.6,74.9,0.6,75c0,0.1,0,0.1,0.1,0.2c0,0.1,0.1,0.3,0.1,0.4
			c0,0.1,0,0.2,0.1,0.3c0.1,0.2,0.2,0.3,0.3,0.4c0,0,0.1,0.1,0.1,0.1c0,0,0,0,0,0c0.2,0.1,0.3,0.2,0.5,0.4c0.3,0.2,0.6,0.2,0.9,0.2
			c0,0,0.1,0,0.1-0.1c0,0,0.1-0.1,0.1-0.1s0,0,0,0l0.3-0.2c0,0,0.1-0.1,0.1-0.1l0.1-0.1c0.1-0.1,0.2-0.2,0.3-0.2
			C3.8,76.4,4,76.2,4.1,76c0,0,0,0,0,0c0.1-0.1,0.2-0.1,0.2-0.2h0l0.3-0.3c0,0,0.1,0,0.1,0c0.1,0,0.2,0,0.2-0.1
			c0-0.1,0.1-0.1,0.2-0.2c0.1,0,0.1-0.1,0.1-0.1c0.1-0.1,0.1-0.2,0.2-0.3c0-0.1,0.1-0.2,0.1-0.3l0,0l0.1-0.2l0.1-0.1
			c-0.1-0.1,0-0.2,0-0.2c0,0,0-0.1,0-0.1c0-0.1,0-0.2,0-0.3c0,0,0-0.1,0-0.1c0,0,0-0.1,0.1-0.1c0,0,0-0.1,0-0.1c0,0,0.1-0.2,0.1-0.3
			c0-0.1,0.1-0.1,0.1-0.2c0.1-0.1,0.1-0.2,0.1-0.4c0,0,0-0.1,0-0.1c0.1-0.1,0.1-0.1,0.1-0.2c0,0,0-0.1,0-0.1c0,0,0-0.1,0-0.1
			c0,0,0-0.1,0-0.1c0.1-0.1,0.1-0.1,0.2-0.2c0,0,0,0,0,0c0,0,0,0.1,0,0.1s0,0.1,0,0.1C6.9,72,7,72.1,7,72.2c0,0,0,0.1,0,0.1
			c0,0,0.1,0.1,0,0.1c0,0,0,0.1,0,0.1c0,0.1,0,0.1,0,0.2c0,0.1,0.1,0.2,0.1,0.3c0,0,0,0,0,0.1s0,0.2,0.1,0.2c0,0.1,0,0.2,0.1,0.3
			l0,0c0,0.1,0,0.2,0.1,0.4c0,0.1,0.1,0.1,0.1,0.1c0,0,0.1,0.1,0,0.2c0,0,0,0.1,0,0.1c0,0.1,0.1,0.1,0.1,0.2c0,0.1,0.1,0.2,0.1,0.3
			l0,0c0,0.1,0,0.1,0,0.2c0,0.1,0.1,0.2,0.1,0.2c0,0.1,0,0.2,0,0.3c0,0,0,0.1,0,0.1C8,75.8,8,76,8.2,76.1c0,0,0,0,0,0
			c0,0,0,0.1,0.1,0.2c0,0.1,0,0.2,0,0.3c0,0,0.1,0.1,0.1,0.1s0.1,0.2,0.2,0.3s0.1,0.2,0.1,0.2c0,0.1,0,0.1,0.1,0.1
			c0.1,0.1,0.1,0.1,0.2,0.2c0,0,0,0,0,0.1c0,0,0,0.1,0.1,0.1l0,0.1l0.1,0.1c0,0.1,0.1,0.1,0.1,0.2c0,0,0.1,0.1,0.1,0.1
			c0.1,0.1,0.1,0.2,0.2,0.3c0,0,0,0,0,0.1c0,0.1,0.1,0.2,0.1,0.2c0,0.1,0.1,0.1,0.2,0.1c0,0,0.1,0,0.1,0c0.1,0.1,0.3,0,0.4,0.1
			c0,0,0,0,0.1,0h0.1c0.1,0,0.1,0,0.1-0.1c0,0,0.1-0.1,0.1-0.1c0.1,0,0.2-0.1,0.2-0.2c0-0.1,0.1-0.1,0.1-0.1
			c0.2-0.1,0.3-0.2,0.4-0.3c0-0.1,0.1-0.2,0.2-0.2c0,0,0.1,0,0.1,0l0-0.1c0.1,0,0.1,0.1,0.2,0c0-0.1,0.1-0.2,0.2-0.2c0,0,0,0,0.1,0
			c0.1,0,0.1,0,0.1-0.1s0.1-0.1,0.1-0.1c0-0.1,0.1-0.2,0.2-0.2c0.1,0,0.1-0.1,0.1-0.1c0,0,0-0.1,0-0.1c0.1,0,0.1-0.1,0.2-0.2
			s0.1-0.2,0.1-0.3c0-0.1,0.1-0.2,0.1-0.2c0-0.1,0-0.1,0.1-0.1c0,0,0.1-0.1,0-0.1c0,0,0,0,0-0.1c0,0,0-0.1,0-0.2c0,0,0-0.1,0-0.1
			c0.1-0.1,0.1-0.2,0.1-0.3c0-0.1,0-0.1,0-0.2c0-0.1,0-0.2,0-0.2c0,0,0,0,0-0.1s0-0.1,0-0.1c0,0,0-0.1,0-0.1c0-0.1,0-0.2,0.1-0.3
			l-0.1-0.1l0.1,0c0-0.1,0-0.1,0-0.1c0,0,0-0.1,0-0.1c0,0,0,0,0-0.1c0-0.1,0-0.1,0-0.2c0,0,0-0.1,0.1-0.1c0-0.1,0-0.2,0-0.3
			c0-0.1,0-0.3,0-0.4c0,0,0-0.1,0-0.1c0,0,0.1-0.1,0.1-0.1c0-0.1,0-0.2,0-0.4c0-0.1,0-0.2,0-0.3c0-0.1,0-0.2,0-0.2
			c0-0.1-0.1-0.2,0-0.3c0-0.1,0-0.2,0-0.2c0-0.1,0-0.1,0-0.2c0-0.1,0-0.1-0.1-0.2c0-0.1,0-0.1,0-0.2c0,0,0-0.1,0-0.1v-0.1
			c0,0,0-0.1,0-0.1c0,0,0-0.1,0-0.1c0-0.1,0-0.2,0-0.3c0-0.1,0-0.2,0-0.3c0-0.1,0-0.3-0.1-0.3c0,0,0.1-0.1,0-0.1c0,0,0-0.2,0-0.3
			c0-0.1,0,0,0-0.1c0-0.1,0-0.1,0-0.2c0-0.1,0-0.1-0.1-0.2c0,0,0,0,0,0c0-0.1,0-0.1,0-0.2c0,0-0.1-0.1,0-0.2c0.1-0.1,0.1-0.3,0-0.4
			c0,0,0-0.1,0-0.1c0-0.1,0.1-0.3,0-0.4c0,0,0,0,0-0.1c0-0.1,0-0.2,0-0.3c0-0.1,0-0.1,0-0.2c0-0.1,0-0.1,0-0.2
			c0.1-0.1,0.1-0.2,0-0.3c0-0.1,0-0.2,0-0.2c0-0.1,0-0.1,0-0.2c0-0.1,0-0.2,0-0.2c0.1-0.1,0.1-0.2,0.1-0.3c0-0.1,0-0.3,0-0.4
			c0,0,0,0,0-0.1c0-0.1,0-0.1,0-0.2c0-0.1,0-0.1,0-0.2c0,0,0,0,0-0.1c0,0,0-0.2,0-0.2c0-0.1,0-0.2,0-0.3c0-0.1,0-0.2-0.1-0.3
			c0,0,0-0.1,0-0.1c0.1-0.1,0-0.2-0.1-0.3l0,0c0,0,0-0.1,0-0.1c0,0,0,0,0,0c0-0.1,0.1-0.1,0-0.2v0c0.1-0.1,0-0.1-0.1-0.2
			c0-0.1,0,0-0.1-0.1c0.1-0.1,0.1-0.2,0-0.2c0,0,0,0,0-0.1c0,0,0-0.1,0-0.1c0,0,0.1-0.1,0.1-0.2c0-0.1,0.1-0.1,0.1-0.1l-0.2-0.1
			c0,0,0-0.1,0-0.1c0,0,0-0.1,0-0.1l-0.1,0l0.1-0.3c0.1,0,0.1-0.1,0.2-0.1c0.1,0,0.1-0.1,0-0.2c0,0,0,0,0,0
			c-0.1-0.1-0.1-0.2-0.1-0.3c0,0,0,0,0-0.1c0-0.1,0-0.1,0-0.2c0,0-0.1,0-0.1-0.1c0,0-0.1-0.1-0.1-0.1C13.2,60,13.2,60,13.4,59.9z
			 M5.2,73L5.2,73C5.3,73,5.3,73.1,5.2,73C5.3,73.1,5.3,73.1,5.2,73z M8.9,76.9C8.9,76.9,9,76.9,8.9,76.9C9,76.9,8.9,76.9,8.9,76.9
			C8.9,76.9,8.9,76.9,8.9,76.9L8.9,76.9C8.9,76.9,8.9,76.9,8.9,76.9z M9,77.5L9,77.5l0-0.2h0V77.5z M9,76.2L9,76.2L9,76.2
			C9.1,76.2,9.1,76.2,9,76.2L9,76.2z M9.2,77.4c0,0,0-0.1,0-0.1V77.4z M9.3,77.3L9.3,77.3L9.3,77.3C9.3,77.3,9.3,77.3,9.3,77.3
			L9.3,77.3z M9.5,78.1C9.5,78.1,9.5,78.1,9.5,78.1L9.5,78.1z M9.6,78L9.6,78L9.6,78L9.6,78L9.6,78z M9.6,78.6
			C9.7,78.6,9.7,78.6,9.6,78.6C9.6,78.7,9.6,78.7,9.6,78.6L9.6,78.6z M11.8,60.2L11.8,60.2L11.8,60.2L11.8,60.2L11.8,60.2z
			 M12.1,77.3L12.1,77.3L12.1,77.3L12.1,77.3L12.1,77.3z M12.2,59.7L12.2,59.7C12.3,59.6,12.3,59.7,12.2,59.7L12.2,59.7z M12.4,62.3
			L12.4,62.3L12.4,62.3L12.4,62.3L12.4,62.3z"/>
		<polygon class="st0" points="13,58.7 13,58.7 13,58.7 13,58.7 		"/>
		<path class="st0" d="M56,78.6C55.9,78.6,55.9,78.5,56,78.6c-0.1-0.2-0.1-0.2-0.2-0.3c0-0.1-0.1-0.1,0-0.2c0-0.1-0.1-0.2-0.2-0.2
			c0-0.1,0-0.2,0-0.2c0-0.1,0-0.1,0-0.1s0-0.1,0.1-0.1s0-0.1,0.1-0.1c0,0,0-0.2,0-0.2c0-0.1,0-0.1-0.1-0.1l-0.3-0.6
			c0-0.1-0.1-0.1-0.1-0.1c-0.1-0.1-0.1-0.2-0.2-0.3c0,0,0,0,0,0c-0.1,0-0.1-0.1-0.2-0.2v0l0,0v0.1c-0.1,0-0.1,0-0.1,0s0,0,0-0.1
			c0,0-0.1-0.1,0-0.1c0,0,0,0,0-0.1c-0.1,0-0.1-0.1-0.1-0.1c-0.1,0-0.2-0.1-0.3-0.2l0.1-0.1v-0.1l-0.2-0.1c0,0,0,0,0,0
			c0,0,0-0.1,0-0.1l-0.1-0.1c0,0,0,0-0.1,0c-0.1,0.1-0.2,0-0.2,0c0,0,0-0.1,0-0.1c0,0,0-0.1,0-0.1c-0.1-0.1-0.1-0.2-0.2-0.3
			c0,0,0,0-0.1,0c0,0,0,0-0.1-0.1s-0.1-0.2-0.1-0.2c0,0,0,0,0-0.1c0-0.1-0.1-0.2-0.1-0.2c-0.1,0-0.1-0.1-0.1-0.2c0,0,0,0,0,0H53
			c0-0.1,0-0.1-0.1-0.1l0-0.1c-0.1-0.1-0.1-0.2-0.2-0.2c0,0,0,0,0-0.1c-0.1-0.1-0.1-0.2-0.2-0.3c-0.1,0-0.1-0.1-0.1-0.2
			c0-0.1-0.1-0.2-0.2-0.2c-0.1,0-0.1-0.1-0.1-0.2c0,0,0-0.1,0-0.1c0,0,0,0,0,0c0,0-0.1,0-0.1-0.1c0,0,0,0,0,0c0,0-0.1-0.1-0.2-0.1
			c-0.1,0-0.1-0.1-0.1-0.2s0-0.1-0.1-0.2c-0.1-0.1-0.2-0.1-0.2-0.2c-0.1-0.1-0.1-0.1-0.2-0.2c-0.1-0.1-0.2-0.2-0.3-0.2
			c0,0,0-0.1-0.1-0.1c-0.2-0.2-0.3-0.3-0.5-0.4c0,0-0.1-0.1-0.1-0.1c0,0-0.1-0.2-0.2-0.2c-0.1,0-0.1,0-0.2-0.1c0,0,0,0,0,0
			c0,0-0.1,0-0.1-0.1c-0.1,0-0.1-0.1-0.2-0.1c0,0,0,0-0.1-0.1c0-0.2-0.2-0.3-0.3-0.3c0,0-0.1,0-0.1-0.1l-0.2-0.1c0,0,0-0.1,0-0.1
			c-0.1,0-0.1-0.1-0.2-0.2l-0.1,0c-0.1,0.1-0.1,0.1-0.1,0.1s0-0.1,0-0.2c-0.1-0.2-0.1-0.2,0.1-0.3l0.1-0.1c0,0,0,0,0.1,0
			c0.1,0,0.1-0.1,0.2-0.1c0,0,0,0,0.1,0c0,0,0.1,0,0.1-0.1c0.1-0.1,0.1-0.1,0.2-0.1c0,0,0,0,0,0c0.1-0.1,0.2-0.2,0.3-0.2l0,0
			l0.2-0.2l0.1-0.1c0.1,0,0.1,0,0.2-0.1c0.1-0.1,0.2-0.2,0.3-0.2c0,0,0.1-0.1,0.1-0.1c0.1-0.1,0.3-0.1,0.4-0.2c0,0,0.1,0,0.1-0.1
			c0,0,0.1-0.1,0.2-0.1l0,0c0,0,0.1,0,0.1-0.1c0.1-0.1,0.2-0.1,0.3-0.2c0,0,0,0,0.1,0c0.1,0,0.2-0.1,0.2-0.2c0,0,0,0,0.1,0
			c0.1,0,0.1-0.1,0.2-0.1c0.1-0.1,0.3-0.2,0.4-0.3c0,0,0,0,0,0c0.1,0,0.2-0.1,0.3-0.2c0.1-0.1,0.2-0.2,0.4-0.3
			c0.1-0.1,0.2-0.1,0.3-0.2c0,0,0,0,0-0.1c0-0.1,0-0.1,0.1-0.1c0.1,0,0.1-0.1,0.2-0.1c0.1,0,0.1-0.1,0.2-0.2c0,0,0,0,0.1,0
			c0,0,0.1-0.1,0.1-0.1c0,0,0-0.1,0.1-0.1c0.1-0.1,0.1-0.1,0.2-0.2c0.1-0.1,0.1-0.2,0.2-0.3c0.1-0.1,0.1-0.2,0.2-0.2
			c0,0,0-0.1,0.1-0.1c0.1-0.1,0.1-0.1,0.2-0.2c0.1-0.2,0.2-0.3,0.3-0.4c0-0.1,0.1-0.1,0.1-0.2c0-0.1,0-0.1,0.1-0.2
			c0.1-0.1,0.1-0.2,0-0.3c0-0.1-0.1-0.2,0-0.3c0,0,0,0,0,0c0-0.1-0.1-0.1-0.1-0.2l0,0c-0.1,0-0.1-0.1-0.1-0.1
			c-0.1-0.1-0.1-0.1-0.2-0.2c0,0,0-0.1-0.1-0.1c-0.1,0-0.2-0.1-0.4-0.1h-0.1l0-0.1L54.4,61v-0.1c-0.1,0-0.2,0-0.2-0.1s-0.1,0-0.1,0
			c0,0-0.2-0.1-0.3-0.1c-0.1,0-0.2,0-0.2,0c-0.1-0.1-0.3-0.1-0.4-0.1c-0.2,0-0.3-0.1-0.5-0.1l0,0c0,0-0.1,0-0.1,0c0,0-0.1,0-0.1,0
			l-0.3-0.1c-0.1,0-0.1,0-0.2-0.1c-0.2,0-0.3,0-0.5,0c0,0-0.1,0-0.1,0h-0.1c-0.1,0-0.1,0-0.2,0c-0.2,0-0.3,0-0.5,0
			c-0.1,0-0.3,0-0.4,0c-0.2,0-0.3,0-0.5,0c-0.1,0-0.2,0-0.3,0c-0.1,0-0.2,0-0.3,0.1l0,0l0-0.1l-0.4,0.1c0,0-0.1,0-0.1,0.1
			c-0.1,0-0.1,0.1-0.2,0.1c-0.1,0-0.2,0-0.3,0.1c0,0-0.1,0-0.1,0c-0.1-0.1-0.2-0.1-0.3,0c0,0-0.1,0.1-0.1,0.1c-0.1,0-0.1,0-0.2,0
			c0,0-0.1,0-0.1,0c-0.1,0-0.2,0-0.2,0l0,0l-0.3,0.2c-0.1,0-0.2,0-0.2,0.1c-0.1,0.1,0,0,0,0c-0.1,0-0.2,0-0.3,0.1
			c0,0.1-0.1,0.1-0.2,0.1c0,0-0.1,0-0.1,0c-0.1,0.1-0.2,0.1-0.4,0.2c-0.1,0.1-0.2,0.1-0.3,0.1c0,0.1-0.1,0.1-0.2,0.1l-0.5,0.3
			c-0.1,0.1-0.2,0.1-0.2,0.2c0,0-0.1,0-0.2,0c-0.1,0.1-0.3,0.1-0.4,0.3c0,0-0.1,0-0.1,0c0,0,0,0,0,0c0,0-0.1,0-0.1,0l-0.3,0.2
			c0,0,0,0,0,0.1c0,0.1-0.1,0.1-0.1,0.1c-0.1,0-0.2,0.2-0.3,0.2c0,0,0,0,0,0c-0.1,0.2-0.1,0.3-0.2,0.5c-0.1,0.1-0.1,0.2-0.1,0.4
			c0,0,0,0.1,0,0.1c-0.1,0.1-0.1,0.2-0.1,0.3h0c-0.1,0-0.2,0.1-0.3,0.2c0,0-0.1,0.1-0.1,0.1c0,0,0,0.1,0,0.1c0,0,0,0.1,0,0.1
			c0,0-0.1,0.1-0.1,0.1c0,0.1,0,0.2,0.1,0.2c0,0,0,0,0,0c0.1,0,0.2,0,0.2,0.1c0,0,0,0.1,0,0.1c0,0.1,0,0.3,0,0.4c0,0.2,0,0.3,0,0.5
			c0,0,0,0.1,0,0.1c0,0,0.1,0.1,0.1,0.1c0,0,0,0.1,0,0.1c0,0.1,0,0.2,0,0.4c0,0,0,0,0,0.1c0,0.1,0,0.2,0.1,0.3c0,0,0,0,0,0.1
			c0,0.1,0,0.1,0,0.2c0,0.1,0.1,0.2,0,0.2c0,0,0,0,0,0l0.1,0.1h0c0.1,0,0.2,0,0.2,0.1c0,0.1,0,0.1,0,0.1c0,0.1,0,0,0,0.1
			c0,0,0,0.2,0,0.2c0,0.1,0,0.1,0,0.2c0,0.1,0,0.3,0,0.4c0,0.1,0,0.2,0,0.3c0,0.1,0,0.2,0,0.3c0,0.1,0,0.1,0,0.2c0,0,0,0.1,0,0.1
			c0,0.1-0.1,0.1-0.2,0.1c-0.1,0-0.1,0-0.1-0.1c0,0,0-0.1,0-0.1c0,0.1,0,0.2,0,0.3c0,0.1,0,0.1,0,0.2c0,0.1,0,0,0,0.1
			c-0.1,0,0,0.1,0,0.2c0.1-0.1,0.1-0.1,0.2,0c0.1,0.1,0.1,0.2,0.2,0.3c0,0,0,0.1,0,0.1c-0.1,0.1,0,0.2,0,0.3c0,0,0,0,0.1,0.1
			c0,0.1,0.1,0.1,0.1,0.1c0.1,0,0.1,0.1,0.1,0.1c0,0.1,0,0.1,0,0.1c0,0,0,0.1,0,0.1c0,0.2,0,0.3,0,0.5c0,0.1,0,0.1,0.1,0.1
			c0,0,0,0,0,0.1c0,0-0.1,0.1-0.1,0.1c0,0.1,0,0.2,0,0.2c0,0,0,0.1,0,0.1c0,0.1,0,0.2,0.1,0.3c0,0,0,0.1,0,0.1c0,0.1,0,0.3,0,0.4
			c0,0,0,0.1,0,0.1c0,0.3,0,0.6,0.1,0.8c0,0.1,0,0.2,0,0.3c0,0.1,0,0.1-0.1,0.1c0,0-0.1-0.1-0.1-0.1c0-0.1,0-0.1,0-0.2
			c0,0,0,0,0-0.1c0-0.2,0-0.4-0.1-0.6c-0.1-0.1-0.1,0-0.1,0c0,0,0,0.1,0,0.1c0,0.1,0,0.1,0.1,0.2c0,0,0,0.1,0,0.1c0,0,0,0.1,0,0.2
			c0,0.2,0.1,0.5,0.1,0.7c0,0.1,0,0.1,0.1,0.1c0.1,0,0.1,0.1,0.1,0.2h-0.1c0,0,0,0.1,0,0.1c0,0.1,0,0.1,0.1,0.2
			c0.1,0,0.1,0.1,0.2,0.2c0,0-0.1,0-0.1,0c0,0,0,0-0.1,0c0,0.1,0,0.1,0,0.2c0,0,0,0,0,0.1c0.1,0.1,0.1,0.2,0,0.3c0,0,0,0.1,0,0.1
			c0.1,0.1,0.1,0.3,0.1,0.4c0,0,0,0.1,0,0.1c0,0-0.1,0-0.1,0c0,0,0-0.1-0.1-0.1c0,0.1,0,0.1,0,0.2c0,0,0,0,0,0.1c0,0,0,0.1,0,0.1
			c0,0,0,0,0.1,0.1c0,0.1,0.1,0.2,0.2,0.2c0,0,0,0,0.1,0c0.2,0.2,0.4,0.4,0.6,0.5c0,0,0.1,0.1,0.1,0.1c0.1,0,0.1,0,0.2,0l0.2-0.1
			l0.1,0.1l0.2-0.3c0,0,0,0,0,0c0,0,0.1,0,0.2,0c0.1-0.1,0.2-0.2,0.3-0.2l0,0c0,0,0,0,0.1,0c0.1,0.1,0.1,0.1,0.2,0s0.1-0.1,0.1-0.1
			c0.1,0,0.3,0,0.4,0.1c0,0,0.1,0,0.1,0c0,0,0.1,0,0.1,0c0,0,0-0.1,0-0.1c0.1-0.1,0.1-0.1,0.2-0.2c0,0,0,0,0.1,0
			c0-0.1,0.1-0.1,0.1,0c0,0,0,0,0,0c0,0,0,0,0.1,0c0,0,0-0.1,0-0.1c0,0-0.1,0-0.1-0.1c0-0.1,0.1-0.1,0.2-0.2s0.1,0,0.1-0.1
			c0-0.1,0,0,0-0.1c0,0,0-0.1,0-0.1c0-0.1,0-0.2-0.1-0.3c0-0.1,0-0.1,0-0.1c0-0.1,0-0.1,0-0.2c0-0.1,0-0.3,0.1-0.4
			c0-0.1,0.1-0.3,0.2-0.4c0,0,0-0.1,0.1-0.2c0.1-0.1,0.1-0.2,0.1-0.3c0-0.2,0-0.4,0-0.5c0-0.1,0-0.2,0-0.4c0-0.1,0-0.1,0-0.2
			c0,0,0,0,0-0.1c0-0.1,0-0.2-0.1-0.2c0,0,0,0,0,0c0-0.1,0-0.1,0-0.2c0-0.1,0-0.1,0-0.2c0-0.1,0.1-0.1,0.2-0.1c0.1,0,0,0,0,0
			c0-0.1-0.1-0.2-0.1-0.2c0,0-0.1-0.1-0.1-0.1c0-0.1-0.1-0.2-0.1-0.3c0,0,0-0.1,0-0.1l0.1,0c0.1,0,0.1,0.1,0.2,0.1
			c0.1,0.1,0.2,0.2,0.3,0.3c0,0,0.1,0.1,0.1,0.1c0,0,0,0,0,0.1c0.1,0.1,0.1,0.2,0.2,0.2s0.1,0.1,0.2,0.1c0.1,0.1,0.1,0.1,0.1,0.2
			c0,0,0.1,0,0.1,0c0,0,0.1,0,0.1,0l-0.1,0.1l0.3,0.4l0,0c0,0,0.1,0,0.1,0c0,0,0,0,0,0.1c0,0,0,0.1,0,0.1l0.1,0.1
			c0.1,0.1,0.2,0.2,0.3,0.3c0,0,0,0,0,0c0,0.1,0.1,0.2,0.2,0.2l0.1-0.1c0.1,0,0.1,0.1,0.2,0.1c0,0,0.1,0.1,0.1,0.1v0.1l-0.1,0
			c0,0-0.1,0-0.1-0.1c0,0.1,0.1,0.1,0.1,0.2c0.1,0.1,0.1,0.2,0.3,0.2l0,0c0,0.1,0,0.2,0.1,0.2c0,0.1,0,0.1,0.1,0.2
			c0.1,0.1,0.1,0.2,0.2,0.3c0,0,0.1,0.1,0.1,0c0.1,0,0.1,0,0.1,0l-0.1,0.1c0.1,0.1,0.1,0.1,0.2,0.2c0,0.1,0.1,0.1,0.1,0.1l0.1,0
			c0.1,0,0.1,0.1,0.1,0.1l0,0.1c0,0.1,0.2,0.1,0.2,0.1l0,0.1c0.1,0,0.1,0,0.2,0c0,0,0.1,0,0.1,0.1l0,0.2c0.1,0,0.1,0.2,0.2,0.2
			l0.1,0.2c0,0,0.1,0.1,0.1,0.2c0,0.1-0.1,0-0.1,0c0,0-0.1,0-0.2,0c-0.1,0-0.1-0.1-0.2-0.1c0,0,0-0.1,0-0.1
			c-0.1-0.1-0.1-0.1-0.2-0.2l-0.1,0.1c0,0,0,0,0.1,0.1c0,0.1,0.1,0.1,0.1,0.1c0,0,0.1,0,0.1,0.1c0,0.1,0,0.1,0.1,0.1h0.1
			c0,0.1,0.1,0.1,0.1,0.2c0,0,0.1,0,0.1,0.1c0.1,0.1,0.1,0.1,0.2,0.2s0.1,0.1,0,0.2c0,0,0.1,0.1,0.1,0.1c0,0,0.1,0.1,0.1,0.2
			c0.1,0,0,0,0,0C52,79,52.1,79,52.1,79c0,0,0,0,0.1,0c0.1,0.1,0.2,0.2,0.4,0.3c0.1,0,0.1,0.1,0.2,0.1c0,0.1,0,0,0.1,0
			c0.2,0.1,0.4,0.2,0.5,0.3c0.1,0.1,0.2,0.1,0.3,0.2c0.1,0.1,0.2,0.1,0.3,0.1c0,0.1,0.1,0.1,0.2,0.1C54,80.1,53.9,80,53.9,80
			c-0.1,0-0.2-0.1-0.2-0.2c0,0-0.1-0.1-0.1-0.1c-0.1,0-0.1-0.1-0.2-0.1c-0.1-0.1-0.2-0.1-0.3-0.1c0-0.1-0.1-0.1-0.1-0.2l0.1,0
			c0.2,0.1,0.3,0.2,0.5,0.3c0,0,0.1,0,0.1,0.1c0,0,0.1,0,0.1,0.1c0.1,0,0.1,0,0.2,0c0.1,0,0.2,0,0.2,0.1c0,0,0.1,0,0.1,0.1l0.2-0.1
			c0,0,0,0,0,0c0,0-0.2-0.1-0.2-0.2c0,0-0.1-0.1-0.1-0.1c0,0,0-0.1,0-0.1s0.1-0.1,0.1,0c0,0,0,0.1,0.1,0.1h-0.1c0,0,0,0.1,0.1,0.1
			c0.1,0,0.1,0,0.1,0.1c0,0.1,0,0.1,0.1,0c0,0,0,0,0,0c0,0,0-0.1,0-0.1c0,0,0.1,0,0.1,0c0.1,0,0.1,0.1,0.2,0.1
			c0,0.1,0.1,0.1,0.2,0.2c0,0,0-0.1,0-0.1c0-0.1-0.1-0.2-0.1-0.2l-0.2-0.2c0,0-0.1,0-0.1-0.1c0-0.1-0.1-0.2-0.2-0.3
			c-0.1-0.1-0.1-0.1-0.2-0.2l0-0.1l0,0h0.1c0.1-0.1,0.1-0.1,0.1-0.1c0,0.1,0.1,0,0.1,0.1c0,0,0,0.2,0.2,0.2c0,0,0,0,0,0l0.1,0.1
			c0,0,0.1,0.1,0.2,0.1c0,0,0.1,0,0.1,0l0.1,0.1c0,0,0.1,0,0.1,0.1c0,0.1,0.1,0.1,0.1,0.1c0,0,0,0,0,0c0,0.1,0,0.2,0.1,0.2
			c0-0.1-0.1-0.2-0.1-0.2c0-0.1-0.1-0.1-0.1-0.2l-0.1-0.2c0,0,0-0.1,0-0.1c0,0,0-0.1,0-0.1c0,0,0.1,0,0.1,0.1c0,0.1,0.1,0.1,0.2,0.2
			c0,0,0.1,0.1,0.1,0.1l0.2,0.1c0,0,0-0.1-0.1-0.1c-0.1,0-0.1,0-0.1-0.1h0.2c0-0.1-0.1-0.1-0.1-0.2c0,0-0.1,0-0.1-0.1c0,0,0,0,0-0.1
			l-0.1-0.2l0.1-0.1c0.1,0.1,0.2,0.1,0.2,0.3c0,0,0,0.1,0.1,0.1c0.1,0,0.1,0.1,0.2,0.1c0,0.1,0,0.1,0.1,0.2
			C56.1,78.8,56,78.7,56,78.6z M55.3,61.4c-0.1,0.1-0.1,0.1-0.1,0H55.3z M42.1,64.6L42.1,64.6L42.1,64.6L42.1,64.6L42.1,64.6z
			 M43.6,72.3L43.6,72.3L43.6,72.3c0-0.1,0-0.1,0-0.1c0,0,0,0,0,0c0,0,0,0,0.1,0C43.6,72.2,43.6,72.3,43.6,72.3
			C43.6,72.3,43.6,72.3,43.6,72.3z M45.2,67.5c0,0-0.1,0-0.1-0.1C45.2,67.4,45.3,67.4,45.2,67.5C45.3,67.5,45.3,67.5,45.2,67.5
			L45.2,67.5z M46.4,61C46.4,60.9,46.5,61,46.4,61c0.1,0.1,0.1,0.1,0.1,0.1c0,0,0,0,0,0c0,0-0.1,0-0.1,0c0,0,0-0.1,0-0.1L46.4,61z
			 M48.2,66.4c-0.1,0-0.1,0-0.2,0.1c0,0,0,0-0.1,0c0,0-0.1,0.1-0.1,0.1c0,0.1-0.1,0.1-0.1,0.2c0,0-0.1,0-0.1,0.1
			c-0.1,0-0.1,0.1-0.2,0.1c-0.1,0.1-0.2,0.1-0.3,0.2c0,0-0.1,0.1-0.1,0.1c-0.1,0-0.2,0.1-0.3,0.2c0,0,0,0.1,0,0.1
			c-0.1,0-0.1,0-0.1,0c0,0.1,0,0-0.1,0c0,0-0.1,0-0.1,0.1c0,0.1,0,0-0.1,0c0-0.1,0-0.3-0.1-0.4c0-0.1,0-0.3-0.1-0.5
			c0-0.2-0.1-0.4-0.1-0.5c0,0,0-0.1,0-0.1c0-0.1,0-0.3-0.1-0.4c0,0-0.1-0.1,0-0.1c-0.1-0.1,0-0.2,0-0.3c0,0,0-0.1,0-0.1
			c0-0.1,0-0.2-0.1-0.2l0,0c0-0.1,0-0.1,0-0.2c0-0.1,0-0.2-0.1-0.2c0,0,0,0,0-0.1c0-0.1,0.1-0.2,0.2-0.2c0,0,0.1,0,0.1,0
			c0.1-0.1,0.3-0.1,0.4-0.2c0.2-0.1,0.4-0.1,0.6-0.2c0.2-0.1,0.4-0.1,0.6-0.1l0.4-0.1c0.1,0,0.1,0,0.2,0l0.4-0.1c0.1,0,0.2,0,0.3,0
			s0.1,0,0.1,0h0.1c0.1,0,0.1,0,0.2,0c0,0,0.1,0,0.1,0c0.1,0,0.1,0,0.2,0h0.2l0.2,0c0,0,0.1,0,0.1,0c0.1,0,0.1,0,0.2,0
			c0.1,0,0.2,0,0.2,0c0,0,0.1,0,0.1,0c0.3-0.1,0.5,0,0.8,0c0.1,0,0.2,0,0.2,0l0,0.1c0,0,0,0,0,0.1c0,0.1-0.1,0.2-0.1,0.2
			c-0.1,0.1-0.2,0.2-0.3,0.3c-0.1,0.1-0.2,0.1-0.2,0.2c0,0-0.1,0-0.1,0c0,0-0.1,0.1-0.1,0.1c0,0-0.1,0-0.1,0c0,0-0.1,0.1-0.1,0.1
			c-0.1,0-0.2,0.1-0.2,0.2c-0.1,0.1,0,0.1-0.1,0.1h-0.1c-0.1,0-0.1,0-0.1,0.1c0,0.1-0.1,0.1-0.1,0.1s-0.1,0.1-0.1,0.1
			c-0.1,0.1-0.2,0.2-0.3,0.2c-0.1,0-0.1,0.1-0.2,0.1c0,0,0,0,0,0c0,0.1,0,0.1-0.1,0.1c0,0-0.1,0-0.1,0c0,0-0.1,0-0.1,0.1
			c0,0.1,0,0.2-0.1,0.2c0,0,0,0,0,0c-0.1,0-0.1,0-0.2,0.1c0,0-0.1,0.1-0.1,0c0,0-0.1,0-0.1,0C48.4,66.4,48.3,66.4,48.2,66.4z
			 M49.4,74.8L49.4,74.8C49.4,74.8,49.5,74.8,49.4,74.8C49.5,74.9,49.4,74.9,49.4,74.8L49.4,74.8z M49.6,74.5c-0.1,0-0.1,0-0.2,0
			c-0.1,0-0.1,0,0-0.1c0-0.1,0.1-0.1,0.2-0.1c0,0,0.1,0,0.1,0.1C49.7,74.5,49.6,74.5,49.6,74.5L49.6,74.5z M50.2,75.7
			C50.2,75.7,50.3,75.7,50.2,75.7C50.3,75.7,50.3,75.7,50.2,75.7C50.3,75.8,50.2,75.8,50.2,75.7L50.2,75.7z M50.6,76.3l-0.1-0.1
			c0-0.1,0-0.1,0.1-0.1C50.8,76.1,50.8,76.2,50.6,76.3L50.6,76.3z M51,75C51,75,51,75,51,75C51,75,51,75,51,75C51,75,51,75,51,75
			C51,75,51,75,51,75L51,75z M51.1,76.6c0,0.1-0.1,0-0.1,0C51,76.5,51,76.5,51.1,76.6C51.1,76.5,51.1,76.5,51.1,76.6L51.1,76.6z
			 M51.3,75.6C51.3,75.6,51.3,75.6,51.3,75.6C51.3,75.6,51.3,75.6,51.3,75.6L51.3,75.6L51.3,75.6z M51.5,77.1L51.5,77.1
			C51.4,77.1,51.4,77.1,51.5,77.1C51.5,77.1,51.5,77.1,51.5,77.1L51.5,77.1z M51.5,74.8c0.1,0,0.2,0,0.3,0c0,0,0,0.1-0.1,0.1
			c0,0-0.1,0-0.1,0.1L51.5,74.8C51.5,74.9,51.5,74.9,51.5,74.8L51.5,74.8z M51.5,77.6l0.1,0.1C51.5,77.7,51.5,77.7,51.5,77.6
			L51.5,77.6z M51.6,77.6C51.6,77.6,51.6,77.6,51.6,77.6l0.1-0.2l0.1,0c0,0,0,0,0,0c0.1,0,0.1,0.1,0.1,0.1c-0.1,0.1-0.1,0-0.1,0
			C51.7,77.6,51.7,77.6,51.6,77.6L51.6,77.6z M51.9,78C51.8,78,51.8,78,51.9,78c-0.1-0.1,0-0.1,0-0.1C51.9,77.9,51.9,77.9,51.9,78
			C51.9,78,51.9,78,51.9,78L51.9,78z M52,77.4C52,77.4,51.9,77.3,52,77.4c-0.1-0.1-0.1-0.1-0.1-0.2c0,0,0,0,0,0
			C52,77.3,52.1,77.3,52,77.4L52,77.4z M52.4,74.4c0,0.1,0,0.1,0,0.1s-0.1,0-0.1,0L52.4,74.4z M52.3,75.6L52.3,75.6
			c0.1,0.1,0,0.2,0,0.1C52.2,75.7,52.2,75.7,52.3,75.6L52.3,75.6z M52.3,76.5C52.3,76.5,52.4,76.5,52.3,76.5c0.1,0.1,0.1,0.2,0,0.2
			l-0.1-0.1C52.2,76.6,52.2,76.5,52.3,76.5L52.3,76.5z M52.2,77.6c-0.1-0.1-0.1-0.1-0.1-0.2l0.1,0.1C52.3,77.5,52.3,77.5,52.2,77.6
			L52.2,77.6z M52.3,78C52.3,78,52.2,78,52.3,78c-0.1-0.1-0.1-0.1-0.1-0.1c0,0,0,0,0.1,0c0,0,0.1,0,0.1,0.1C52.4,78,52.4,78,52.3,78
			L52.3,78z M52.9,77.4c-0.1,0-0.1-0.1-0.1-0.2c0-0.1,0.1,0,0.1,0C52.9,77.3,52.9,77.3,52.9,77.4L52.9,77.4z M53.3,77.8l-0.2-0.2
			c0.1-0.1,0.1-0.1,0.2,0C53.4,77.7,53.4,77.8,53.3,77.8C53.4,77.8,53.4,77.8,53.3,77.8L53.3,77.8z M54.8,79.5
			C54.7,79.5,54.7,79.5,54.8,79.5L54.8,79.5z M55.4,79.1C55.4,79.1,55.4,79.1,55.4,79.1C55.4,79.1,55.4,79.2,55.4,79.1
			C55.3,79.2,55.3,79.2,55.4,79.1C55.3,79.1,55.4,79.1,55.4,79.1L55.4,79.1z M55.4,76.8l-0.1-0.1c0-0.1,0.1,0,0.2,0
			C55.5,76.7,55.5,76.7,55.4,76.8L55.4,76.8z"/>
		<path class="st0" d="M14.9,65.3L14.9,65.3c0.1-0.1,0.2-0.1,0.3-0.1c0,0,0,0.1,0,0.1c0,0,0,0,0,0c-0.1,0.1,0,0.3-0.1,0.4L15,65.8
			c0.1,0,0.2,0.1,0.1,0.2c-0.1,0.1,0,0.1,0,0.2c0,0-0.1,0.1-0.1,0.1c-0.1,0-0.1,0.1,0,0.2c0,0,0,0,0,0c0,0,0,0,0,0.1
			c0,0.1,0,0.2,0,0.3c-0.1,0-0.1,0-0.2,0.1c0.1,0,0.2,0.1,0.2,0.2c-0.1,0.1,0,0.2-0.1,0.3c0.1,0.1,0.1,0.3,0,0.4c0,0,0,0.1,0,0.1
			c0,0,0,0.1,0,0.1l-0.2,0.2v0v0h-0.1c0,0,0,0,0.1,0c0.2,0,0.2,0,0.2,0.2c0,0.1,0,0.2,0,0.3c0,0.1,0,0.1,0,0.2l-0.1,0v0.1l-0.1,0.1
			c0,0.1-0.1,0.1-0.1,0.1l0.2,0.1c0,0.1-0.1,0.2,0,0.3l-0.2,0.1c0,0.1,0.1,0.1,0.1,0.1c0,0,0,0.1,0,0.1l0,0.1c0,0.1,0,0.1,0.1,0.1
			c0,0,0.1,0,0.1,0c0,0.1,0,0.1,0,0.2c-0.1,0-0.1,0.1-0.1,0.1c0,0.1,0.1,0.2,0,0.3c0,0,0.1,0.1,0.1,0.1c0,0,0,0.1,0,0.1c0,0,0,0,0,0
			c0,0,0,0.1-0.1,0.1c0,0.1,0,0.1-0.1,0.1c0,0.1-0.1,0.2-0.1,0.3c0,0,0,0,0,0c0,0-0.1,0.1,0,0.1c0,0,0,0,0,0l0.3-0.2L15,71.8
			c0.1,0,0.1,0,0.2,0c0.1,0,0.1,0,0.2,0c0.1,0,0.1,0,0.1,0.1l-0.2,0.2c0,0,0,0,0,0c0,0.1,0,0.2,0,0.3c0,0.1,0,0.1,0,0.2l0.1,0.1
			c-0.1,0-0.1,0.1-0.2,0.2l0.4,0c0,0.1-0.1,0.2-0.2,0.1l-0.2-0.1c0,0-0.1,0.1-0.1,0.1c0,0.1-0.1,0.1-0.1,0.1c-0.1,0-0.1,0-0.1,0
			s-0.1,0,0,0.1h0c0.1,0,0.2,0,0.3,0.1l0.1-0.1c0,0,0.1,0,0.1,0.1c0.1,0,0.1,0.1,0.1,0.2c0,0.1-0.1,0.1-0.1,0.2c0,0.1,0,0.1,0,0.2
			l0.1,0c0,0.1-0.2,0.1-0.2,0.3h0.1c0,0.1,0.1,0.2,0.1,0.3c0,0.1,0,0.1,0.1,0.2c0,0,0,0,0,0c0,0-0.1,0-0.1,0.1c0,0,0,0.1,0.1,0.1
			c0,0,0.1,0.1,0.1,0.2c-0.1,0.1-0.2,0.3,0,0.4l0,0c0.1-0.1,0.1-0.1,0.2,0c0,0.1,0.1,0.1,0.1,0.2c0.1,0.2,0.1,0.3,0.3,0.4
			c0.1,0.1,0.1,0.1,0.2,0.1c0,0.1,0,0.1,0,0.2c0,0.1,0,0.2,0.1,0.3c0,0,0,0,0,0l-0.1,0l0.1,0.2l0.2,0.2c0,0,0,0,0,0
			c0,0.1,0.1,0.1,0.2,0.2c0,0,0.1,0.1,0.1,0.2c0,0.1,0.1,0.1,0.2,0.1c0.1,0,0.1,0,0.1,0.1c0,0.1,0.1,0.1,0.1,0.1l0.2,0
			c0,0.1,0,0.1,0.1,0.1c0.1,0,0.2,0.1,0.3,0.2c0.1,0,0.1,0,0.2,0c0.1,0,0.1,0,0.1,0s0,0,0.1,0c0,0,0.1,0,0.1,0.1
			c0.1,0.1,0.2,0.1,0.3,0.1c0,0,0,0,0,0c0.1,0,0.2,0,0.2,0h0c0.1,0.1,0.1,0,0.2,0c0.1,0,0.2,0,0.3,0c0.1,0,0.2,0,0.3,0
			c0.1,0,0.2,0,0.4-0.1c0.1,0,0.1,0,0.2-0.1l0.5-0.1c0,0,0.1,0,0.1,0c0.1,0,0.2-0.1,0.3-0.1c0.1,0,0.1,0,0.2-0.1c0,0,0.1,0,0.1,0
			c0,0,0.1,0,0.2-0.1c0.1,0,0.1-0.1,0.2-0.1c0.2-0.1,0.4-0.1,0.5-0.2c0.2-0.1,0.2-0.1,0.4-0.1c0,0,0,0,0,0c0-0.1,0.1-0.1,0.2-0.1
			c0.1,0,0.2-0.1,0.2-0.1c0,0,0,0,0.1,0c0,0,0.1,0,0.1,0c0,0,0.2-0.1,0.3-0.2c0.1-0.1,0.2-0.2,0.3-0.3c0,0,0-0.1,0.1-0.1
			c0.1,0,0.2-0.1,0.3-0.2c0.1,0,0.1-0.1,0.1-0.2c0,0,0,0,0,0c0.2-0.1,0.3-0.2,0.4-0.3c0,0,0,0,0,0c0.1,0,0.1-0.1,0.2-0.1
			c0,0,0.1-0.1,0.1-0.1c0,0,0.1-0.1,0.1-0.1c0,0,0.2-0.2,0.3-0.3c0.1-0.1,0.1-0.2,0.2-0.2c0.1,0,0.1-0.1,0.2-0.2
			c0-0.1,0-0.1,0.1-0.2c0,0,0.1,0,0.1-0.1c0-0.1,0.1-0.1,0.1-0.1c0,0,0,0,0,0c0.1-0.1,0.1-0.2,0.2-0.2c0,0,0,0,0,0h0
			c-0.1,0-0.1-0.1,0-0.1c0.1-0.1,0.2-0.1,0.2-0.2c0,0,0,0,0,0l0.1-0.1c0,0,0.1-0.1,0.1-0.1c0,0,0,0,0,0c0-0.1,0-0.1,0-0.2l0.2-0.1
			c0,0,0,0,0.1-0.1c0-0.1,0-0.1,0-0.2c0,0,0-0.1,0.1-0.1l0.2-0.1c0,0,0,0,0-0.1c0-0.1,0-0.2,0.1-0.3c0,0,0-0.1,0-0.1
			c0,0,0-0.1,0-0.1c0,0,0,0,0.1-0.1l-0.1,0c0,0-0.1,0.1-0.1,0.1c0,0,0-0.1-0.1-0.1l-0.1,0l-0.2,0.1c0,0-0.1,0-0.1,0l-0.3,0.1
			c-0.2,0-0.3,0.1-0.4,0.1s-0.2,0.1-0.3,0.1c-0.1,0-0.1,0-0.2,0.1c-0.1,0.1-0.2,0.1-0.3,0.2c-0.1,0-0.2,0.1-0.2,0.1
			c0,0-0.1,0-0.1,0.1c0,0-0.1,0-0.1,0c-0.2,0.1-0.3,0.1-0.5,0.2c0,0,0,0-0.1,0c0,0,0,0,0,0v0.1l-0.1,0l0-0.1l-0.1,0c0,0-0.1,0-0.1,0
			c-0.1,0-0.1,0-0.2,0c-0.1,0-0.2,0-0.3,0l-0.3,0.1c0,0-0.1,0-0.1,0c-0.1,0-0.2,0-0.4,0c-0.2,0-0.4,0-0.6,0c0,0-0.1,0-0.1,0.1
			c0,0.1-0.1,0.1-0.1,0.1c-0.1,0-0.3,0-0.4,0.1c0,0-0.1,0-0.1,0c-0.1-0.1-0.2-0.1-0.3-0.1c0,0-0.1,0-0.1,0c0,0,0,0-0.1,0
			c0,0,0,0-0.1,0c0,0,0,0-0.1,0c-0.1,0-0.2-0.1-0.2-0.1c0,0-0.1-0.1-0.1-0.1c-0.1-0.1-0.2-0.1-0.3-0.2c0,0-0.1-0.1-0.1-0.1
			c-0.1-0.2-0.1-0.2-0.3-0.2c0,0,0,0.1,0,0.1c0,0,0.1,0.1,0.1,0.1c0,0,0,0.1,0,0.1c0,0.1,0.1,0.2,0.3,0.3c0,0,0.1,0.1,0.1,0.1
			l0.1,0.1c0,0-0.1,0.1-0.1,0.1c-0.1,0-0.1,0-0.1-0.1c-0.1-0.1-0.2-0.1-0.3-0.3c0,0,0,0,0,0c-0.1,0-0.1-0.2-0.2-0.2l0,0
			c0-0.1-0.1-0.2-0.2-0.3c0,0,0-0.1,0-0.1c0-0.1,0-0.1-0.1-0.2c-0.1-0.1-0.1-0.2-0.1-0.2c0-0.1-0.1-0.1-0.1-0.2
			c0-0.1-0.1-0.2-0.1-0.3l0.1-0.1c0,0,0-0.1,0-0.1c-0.1-0.1-0.1-0.2-0.2-0.3c0-0.1,0-0.1,0-0.2c0-0.1,0-0.1,0.1-0.1h0.1
			c0-0.1,0-0.2,0.1-0.2l0.2-0.1c0.1,0,0.1,0,0.2,0l0.5-0.1c0.1,0,0.1,0,0.2,0l0.5-0.1l0.3-0.1c0.1,0,0.1,0,0.2-0.1c0,0,0,0,0.1,0
			c0,0,0.1,0,0.1,0c0.1,0,0.1,0,0.2,0c0.2,0,0.3,0,0.5-0.1c0.2-0.1,0.3-0.1,0.5-0.1c0,0,0.1,0,0.1,0c0-0.1,0.1-0.1,0.2-0.1
			c0,0,0.1,0,0.1,0c0.1-0.1,0.3-0.1,0.4-0.2c0.1,0,0.1,0,0.2-0.1s0,0,0,0c0,0,0.1,0,0.1,0c0.1,0,0.1,0,0.2-0.1
			c0.1-0.1,0.2,0,0.2-0.2c0,0,0,0,0,0c0.1,0,0.1-0.1,0.2-0.1c0.2-0.1,0.4-0.2,0.6-0.3c0,0,0,0,0,0c0-0.1,0.1-0.2,0.2-0.2
			c0,0,0,0,0,0c0-0.1,0.1-0.1,0.1-0.1c0,0,0.1,0,0.1-0.1c0-0.1,0.1-0.1,0.1-0.2c0-0.1,0-0.1,0-0.2c0,0,0-0.1,0.1-0.1
			c0.1,0,0.1-0.1,0.1-0.1c0-0.1,0-0.1,0.1-0.1c0,0,0,0,0,0c0.1,0,0.2,0,0.3-0.1c0,0,0-0.1,0-0.1c0-0.1,0-0.1,0.1-0.2
			c0.1,0,0.1-0.1,0.1-0.2c0,0,0,0,0,0c0,0,0-0.1-0.1-0.1c0.1,0,0.1-0.1,0.2-0.1c0.1,0,0.2,0,0.2,0c0,0,0-0.1,0-0.2
			c0,0,0-0.1-0.1-0.1c0,0-0.1,0-0.1,0l-0.5-0.1c-0.1,0-0.1,0-0.2,0c0,0,0,0-0.1,0c0,0-0.1-0.1-0.1-0.1c0,0-0.1,0-0.1-0.1
			s-0.1-0.1-0.1-0.1c-0.1,0-0.1,0-0.2,0c-0.1,0-0.2,0-0.4,0c-0.1,0-0.1,0-0.2,0.1c0-0.1-0.1-0.1-0.2-0.1c0,0,0,0-0.1,0l-0.2,0
			c0,0-0.1,0-0.1,0c-0.1,0-0.2,0.1-0.3,0h0c0,0-0.1,0-0.1,0c0,0,0,0-0.1,0c-0.2,0-0.4,0.1-0.6,0.1c-0.1,0-0.2,0-0.3,0.1
			c-0.1,0-0.2,0.1-0.3,0.1c-0.2,0-0.3,0.1-0.5,0.2c0,0,0,0-0.1,0c0,0-0.2,0-0.3,0l0,0c-0.1,0-0.1,0-0.2,0c-0.1,0-0.1,0.1-0.2,0.1
			c0,0,0,0,0,0c0,0-0.1,0-0.1,0.1s-0.2,0-0.3,0.1l0,0c0,0-0.1,0-0.1,0c0,0-0.1,0.1-0.2,0c0,0,0,0,0,0.1c0,0-0.1,0-0.1,0l-0.1-0.1
			l0,0.1c-0.1,0.1-0.2,0.2-0.4,0.1l-0.1-0.2c-0.1,0,0,0.1-0.1,0.1c-0.1-0.1-0.1,0-0.1,0l0-0.1l-0.2,0.1c0.1,0.1,0.1,0.1,0,0.2
			l-0.1-0.1l-0.2,0c-0.1,0-0.1,0.1-0.2,0.1l0-0.1l-0.1-0.1c-0.1,0.1-0.1,0-0.2,0c0,0.1-0.1,0.1-0.3,0v0.2c0,0-0.1,0-0.1,0
			c0,0,0-0.1,0-0.1l-0.2-0.3c0,0,0,0,0,0c0-0.1,0-0.3-0.1-0.4c0-0.1,0-0.2,0-0.3c0-0.1,0-0.2,0-0.4c0,0,0,0,0-0.1
			c-0.1-0.1-0.1-0.3,0-0.4c0-0.1,0-0.2,0-0.3c0,0,0,0,0-0.1c0,0,0-0.1,0-0.1c0-0.1,0-0.1,0-0.2c0.1-0.1,0.1-0.2,0-0.3c0,0,0,0,0,0
			c0,0,0,0,0-0.1c0-0.1,0-0.2,0-0.3c0,0,0-0.1,0-0.1c0-0.1,0-0.1,0.1-0.1h0c0.1,0,0.1-0.1,0-0.1l0-0.1c0.1,0,0.1,0,0.2-0.1l0.5-0.1
			c0.2,0,0.3-0.1,0.5-0.1c0.2-0.1,0.4-0.1,0.6-0.1c0.1,0,0.2-0.1,0.3-0.1c0.1,0,0.3-0.1,0.4-0.1c0.1,0,0.3-0.1,0.4-0.1
			c0.2,0,0.2,0,0.3,0c0.1,0,0.1,0,0.1-0.1l0.3-0.1l0.3-0.1l0.2-0.1c0,0,0.1,0,0.1,0c0,0,0.1,0,0.1,0c0-0.1,0.1-0.1,0.2-0.1
			c0.1,0,0.2,0,0.2-0.1c0.1,0,0.2,0,0.3-0.1c0.1,0,0.2-0.1,0.3-0.1h0.1c0.1,0,0.2,0,0.2-0.1c0.1,0,0.1,0,0.2,0c0,0,0.1,0,0.1,0
			l0.4-0.1h0v-0.1l0.3-0.1c0.1,0,0.2,0,0.2-0.1c0.2,0.1,0.4,0.1,0.6,0L26,61.6c-0.1-0.1-0.1-0.1,0-0.2c0.1,0,0.1,0,0.2,0
			c0.1,0,0.1,0,0.1-0.1c0,0,0-0.1,0-0.1c0-0.1,0-0.2,0.1-0.2h0.1c0.1,0,0.1-0.1,0.2-0.1c-0.1,0-0.1,0-0.2,0c-0.1,0-0.1,0-0.1-0.1
			c0-0.1,0-0.1,0-0.2c0.1,0,0.1-0.1,0.1-0.1c0.1-0.1,0.1-0.1,0.2-0.2c0,0,0.1,0,0.1,0c0.1,0,0.2-0.1,0.2-0.2c0,0,0.1-0.1,0.1-0.1
			c0,0,0,0-0.1,0c-0.1,0-0.3,0-0.4,0c-0.1,0-0.1,0-0.2-0.1c-0.1,0-0.1-0.1-0.2-0.1h-0.3h-0.4c-0.1,0-0.1,0-0.2,0c-0.1,0,0,0,0,0
			c-0.1,0-0.2,0-0.4,0h-0.4h-0.3c-0.1,0-0.2,0-0.3,0h-0.5c-0.1,0-0.2,0-0.3,0l-0.7,0.1l-0.2,0l-0.1,0l-0.2,0c-0.1,0-0.1,0-0.2,0h0
			c0,0,0,0,0,0s-0.1,0-0.1,0c-0.2,0-0.3,0.1-0.5,0.1h-0.1c-0.1,0-0.1,0-0.2,0.1c0,0-0.1,0-0.1,0c-0.1,0-0.3,0-0.4,0.1c0,0,0,0-0.1,0
			c-0.1,0-0.2,0-0.4,0c-0.1,0-0.2,0-0.2,0.1c0,0,0,0-0.1,0c-0.1,0-0.2,0-0.2,0c-0.1,0-0.1,0-0.2,0c-0.2,0-0.3,0-0.5,0.1
			c-0.1,0-0.1,0-0.2,0c-0.1-0.1-0.2-0.1-0.3-0.1l-0.1-0.1c0,0-0.1,0-0.1,0c0,0-0.1,0-0.1,0c0,0,0,0,0,0c0,0,0,0,0,0v-0.1
			c0,0-0.1,0-0.1,0c-0.1,0-0.2,0-0.3,0.1c0,0.1-0.1,0.1-0.1,0.2c-0.2,0-0.2,0-0.2,0.2c-0.1,0-0.1,0-0.1-0.1c-0.1,0-0.2,0.1-0.2,0.1
			c0,0-0.1,0-0.1,0.1c0,0.1,0,0.1-0.1,0.2c0,0.1-0.1,0.1-0.1,0.1c0,0.1,0,0.2-0.1,0.3c0,0-0.1,0.1-0.1,0.1c0,0.1-0.1,0.2-0.2,0.3
			c0,0,0,0-0.1,0.1c0,0-0.1,0.1-0.1,0.1c-0.1,0-0.1,0.1-0.2,0.2c0,0.1-0.1,0.1-0.1,0.2c0,0.1,0,0.1,0,0.2c0,0.1,0,0.2-0.1,0.2
			c0,0,0,0.2-0.1,0.2c-0.1,0.1-0.2,0.2-0.2,0.3c0,0.1-0.1,0.2-0.1,0.3c0,0,0,0,0,0c0,0,0,0.1,0,0.1c0,0.1-0.1,0.1-0.1,0.2
			c0,0.1-0.1,0.3-0.1,0.4c0,0,0,0,0,0c0,0.1,0,0.1-0.1,0.2c0,0.1-0.1,0.2-0.1,0.3c0.1,0,0.1,0.1,0,0.1h-0.1v0.3
			C14.9,65.3,14.9,65.3,14.9,65.3z M14.8,69.7C14.8,69.7,14.8,69.7,14.8,69.7C14.8,69.6,14.8,69.7,14.8,69.7
			C14.9,69.7,14.8,69.7,14.8,69.7C14.9,69.7,14.8,69.7,14.8,69.7z M14.9,70.4C14.9,70.4,14.9,70.4,14.9,70.4
			C14.9,70.4,14.9,70.3,14.9,70.4C15,70.3,15,70.3,14.9,70.4C15,70.4,15,70.4,14.9,70.4z M15.2,67.1C15.2,67.1,15.1,67.1,15.2,67.1
			l0-0.1C15.2,67.1,15.2,67.1,15.2,67.1L15.2,67.1z M15.1,73.2C15,73.2,15,73.1,15.1,73.2C15,73.1,15,73.1,15.1,73.2
			C15,73,15,73,15.1,73c0,0,0,0,0.1,0.1S15.1,73.2,15.1,73.2L15.1,73.2z M20.2,73L20.2,73L20.2,73L20.2,73L20.2,73z M20.2,73.7
			L20.2,73.7C20.1,73.7,20.1,73.7,20.2,73.7L20.2,73.7z M19.6,74.2L19.6,74.2L19.6,74.2L19.6,74.2L19.6,74.2z M24.8,66.4L24.8,66.4
			C24.9,66.5,24.8,66.5,24.8,66.4C24.8,66.5,24.8,66.5,24.8,66.4z M24.4,66.4C24.4,66.4,24.4,66.4,24.4,66.4
			C24.4,66.4,24.4,66.5,24.4,66.4C24.4,66.5,24.4,66.5,24.4,66.4L24.4,66.4z M21.3,67.2L21.3,67.2C21.4,67.3,21.4,67.3,21.3,67.2
			C21.4,67.3,21.4,67.3,21.3,67.2C21.3,67.2,21.3,67.3,21.3,67.2L21.3,67.2z M19.6,67.5C19.7,67.5,19.7,67.5,19.6,67.5
			C19.7,67.5,19.7,67.6,19.6,67.5C19.6,67.5,19.6,67.5,19.6,67.5C19.6,67.5,19.6,67.5,19.6,67.5z M19.5,67.9L19.5,67.9L19.5,67.9
			L19.5,67.9L19.5,67.9z M19.4,67.7c-0.1,0-0.1,0-0.1,0H19.4z M19.2,67.5C19.2,67.5,19.2,67.5,19.2,67.5
			C19.2,67.5,19.2,67.5,19.2,67.5C19.2,67.6,19.2,67.5,19.2,67.5C19.2,67.5,19.2,67.5,19.2,67.5z M19,67.5
			C19,67.5,19.1,67.5,19,67.5L19,67.5L19,67.5c0,0.1,0.1,0.1,0,0.2l0,0c0.1,0,0.1,0,0.1,0.1L19,67.7l0,0C19,67.7,19,67.6,19,67.5
			L19,67.5L19,67.5C19,67.6,19,67.5,19,67.5L19,67.5z M25.2,61.5C25.2,61.5,25.2,61.5,25.2,61.5L25.2,61.5
			C25.2,61.5,25.2,61.5,25.2,61.5C25.2,61.5,25.2,61.5,25.2,61.5z M23.6,61.8C23.7,61.8,23.7,61.8,23.6,61.8
			C23.7,61.8,23.7,61.9,23.6,61.8C23.6,61.9,23.6,61.9,23.6,61.8C23.6,61.9,23.6,61.8,23.6,61.8C23.6,61.8,23.6,61.8,23.6,61.8z
			 M16.5,76.1c0,0,0.1,0,0.1-0.1c0,0,0.1,0,0.2,0c0,0,0.1,0.1,0,0.1c-0.1,0,0,0,0,0l-0.2,0c0,0-0.1,0-0.1,0
			C16.5,76.2,16.5,76.2,16.5,76.1C16.5,76.1,16.5,76.1,16.5,76.1z M16.3,76.1C16.3,76.1,16.4,76.1,16.3,76.1
			C16.4,76.2,16.3,76.2,16.3,76.1C16.3,76.2,16.3,76.2,16.3,76.1L16.3,76.1C16.3,76.1,16.3,76.1,16.3,76.1L16.3,76.1z M16.2,73.2
			L16.2,73.2L16.2,73.2L16.2,73.2L16.2,73.2z M15.9,75.5c0,0,0.1-0.1,0.1,0c0,0,0,0,0,0c0,0,0,0,0,0l0,0.1c0,0-0.1,0-0.1-0.1
			C15.9,75.6,15.8,75.6,15.9,75.5L15.9,75.5z M15.5,73.7L15.5,73.7C15.5,73.8,15.5,73.8,15.5,73.7L15.5,73.7z M15.3,68.2L15.3,68.2
			L15.3,68.2c0.1,0.1,0.1,0,0.2,0.1s0,0.1,0,0.1s0,0,0,0.1c0,0-0.1,0-0.1,0C15.3,68.3,15.2,68.3,15.3,68.2z"/>
		<polygon class="st0" points="40.5,79.9 40.5,79.9 40.5,79.9 		"/>
		<path class="st0" d="M41.4,67.8c0.1,0,0.1,0,0.2-0.1c0-0.1,0.1,0,0.1,0l0.3-0.1c-0.1-0.1-0.3,0-0.3-0.2h-0.1c-0.1,0-0.1,0-0.1-0.1
			c0,0,0-0.1-0.1-0.1c-0.1,0-0.1-0.1-0.1-0.2c0,0,0-0.1,0-0.1c-0.1,0-0.1,0-0.1,0c0,0-0.1,0-0.1,0c-0.1,0-0.2,0-0.3,0
			c-0.1-0.1-0.2-0.1-0.3-0.1c-0.1,0-0.2,0-0.2-0.1c0,0-0.1-0.1-0.1,0c0,0-0.1,0-0.1,0c-0.3-0.1-0.5-0.1-0.8-0.1c-0.1,0-0.2,0-0.3,0
			c0,0,0,0,0,0c-0.1,0-0.1,0-0.2,0c0,0-0.1,0-0.1-0.1c0,0,0-0.1,0-0.1c0,0,0-0.1,0-0.1c0-0.2-0.1-0.3-0.2-0.4
			c-0.1-0.1-0.2-0.1-0.2-0.2c0,0,0-0.1-0.1-0.1c0,0,0-0.1,0-0.1c0-0.1,0-0.1,0-0.2c-0.1-0.1-0.1-0.2-0.2-0.4c0-0.1-0.1-0.1-0.1-0.2
			c-0.1-0.1-0.1-0.1-0.2-0.2s0-0.1,0-0.1c0-0.1,0-0.2-0.1-0.3c0,0-0.1-0.1-0.1-0.2c0-0.1,0-0.1-0.1-0.2c0,0,0,0,0-0.1
			c0,0,0-0.1,0-0.1c0,0-0.1-0.1-0.1-0.2c0,0,0-0.1,0-0.1c0,0,0-0.1,0-0.1c0,0,0,0,0-0.1c0-0.1-0.1-0.1-0.1-0.2c0,0-0.1,0-0.1-0.1
			c0-0.1-0.1-0.2-0.1-0.2c-0.1-0.1-0.2-0.3-0.2-0.4c0-0.1-0.1-0.1-0.1-0.1c0,0,0-0.1,0-0.1c-0.1-0.1-0.1-0.2-0.2-0.3
			c0-0.1-0.1-0.1-0.1-0.1c0,0-0.1-0.1-0.1-0.2c0-0.1,0-0.1-0.1-0.1c-0.1-0.1-0.1-0.1-0.2-0.2c0-0.1-0.1-0.1-0.1-0.1l-0.1,0
			c-0.1-0.1-0.3-0.2-0.4-0.3c-0.1,0-0.1-0.1-0.2-0.1h0c0,0-0.1-0.1-0.1-0.1c-0.2-0.1-0.4-0.2-0.6-0.2c0,0-0.1,0-0.1,0l-0.2,0
			c-0.1,0-0.2,0.1-0.3,0c0,0-0.1,0-0.1,0c-0.1,0-0.2,0-0.4,0.1c-0.1,0-0.2,0.1-0.4,0.1c-0.1,0-0.1,0-0.1,0.1
			c-0.1,0.1-0.2,0.1-0.2,0.2c0,0,0,0,0,0.1c0,0,0,0.1-0.1,0.2c0,0.1-0.1,0.1-0.1,0.2c0,0.1-0.1,0.1-0.2,0.1c0,0,0,0.1,0,0.1
			c0,0,0,0,0,0.1l-0.1,0v0.1h-0.1l0,0.1c0,0-0.1,0.1,0,0.1c0,0,0,0,0,0l-0.1,0.1c0,0-0.1,0-0.1,0.1c0,0,0,0.1,0,0.1L31.4,62
			c0,0,0,0.1,0,0.1c0,0,0,0.1,0,0.1c0,0-0.1,0.1-0.1,0.2c0,0,0,0,0,0c0,0,0,0.1,0,0.1c0,0.1,0,0.1-0.1,0.2c0,0-0.1,0.1-0.1,0.1
			c0,0,0,0.1,0,0.1c0,0.1,0,0.1-0.1,0.2c-0.1,0.1-0.1,0.1-0.1,0.2c0.1,0.1,0,0.1,0,0.1c0,0-0.1,0-0.1,0c-0.1,0-0.1,0.1-0.1,0.1
			c0,0,0,0.1,0,0.1c0,0,0,0,0,0c-0.1,0.1-0.2,0.2-0.2,0.4c0,0,0,0,0,0.1c0,0-0.1,0-0.1,0.1c0,0,0,0.1,0,0.1
			c-0.1,0.1-0.1,0.2-0.1,0.3c-0.1,0.1-0.2,0.3-0.2,0.4c0,0,0,0.1,0,0.1C30,65.4,30,65.5,30,65.6c-0.1,0-0.1,0.1-0.1,0.2
			c0,0.1-0.1,0.1,0,0.2c-0.1,0,0,0.1-0.1,0.2c0,0.1-0.1,0.2-0.1,0.2c0,0.2-0.1,0.3-0.1,0.5c0,0,0,0,0,0c0,0.1-0.1,0.2-0.1,0.3
			c0,0,0,0.1,0,0.1c0,0.1,0,0.1,0,0.2c0,0,0,0.1,0,0.1c-0.1,0.1-0.1,0.2-0.1,0.3c-0.1,0-0.1,0.1-0.1,0.2c0,0.1,0,0.2,0,0.2
			c-0.1,0.1-0.1,0.1-0.1,0.2c0,0,0,0,0,0.1c-0.1,0.1-0.1,0.1-0.1,0.2c0,0.1,0,0.2,0,0.2c-0.1,0.1-0.1,0.2-0.2,0.3
			c-0.1,0.1-0.1,0.2-0.2,0.3c-0.1,0.1,0,0.2-0.1,0.3c0,0,0,0,0,0l0,0.2h-0.1c0,0,0,0.1,0,0.1c0,0.1,0,0.2-0.1,0.2
			c-0.1,0.1-0.1,0.2-0.1,0.3l0,0c0,0,0,0.2,0,0.2c-0.1,0.1,0,0.2-0.1,0.3c0,0,0,0,0,0.1c0.1,0.1,0.1,0.2,0,0.3c0,0,0,0,0,0
			c0,0.1,0,0.1,0,0.2c0,0,0,0,0,0l0.2,0.1c0.1,0,0.1,0,0.1,0.1s0,0.1,0,0.1c0.1,0,0.2,0.1,0.3,0.1l0.1,0.1c0,0.2-0.1,0.3-0.1,0.4
			c0,0,0,0,0,0.1c-0.1,0.1-0.1,0.3-0.1,0.4c0,0.1-0.1,0-0.1,0c-0.1,0-0.3,0.1-0.3,0.2c0,0,0,0.1,0,0.1c0,0.2,0,0.3,0,0.5
			c0,0.1,0,0.1,0,0.2c0,0.1,0.1,0.1,0.1,0.2l0,0c0,0.1-0.1,0.2,0,0.3 M28.4,74.7c0,0.1,0,0.1,0,0.2c0,0-0.1,0-0.1,0.1
			c0,0.1,0,0.1,0,0.2c0,0.1,0,0.2,0.1,0.3h0c0,0.1,0,0.1,0,0.2c0,0.1,0,0.1,0,0.2l0.1,0c0,0.1,0,0.1-0.1,0.2c0,0.1,0,0.1,0,0.2
			c0,0.1,0,0.2,0,0.3c0,0,0,0.1,0,0.1s0,0.1,0,0.2c0,0.1,0,0.1,0.1,0.2c0.1,0,0.1,0.1,0.2,0.1c0.1,0,0.1,0.1,0.2,0
			c0,0,0.1-0.1,0.1,0c0,0,0.1,0,0.1,0c0.1-0.1,0.2-0.2,0.3-0.3c0,0,0.1-0.1,0.1-0.1c0.1,0,0.2-0.1,0.2-0.2c0-0.1,0-0.1,0-0.2
			c0.1,0,0.1-0.1,0.1-0.1c0-0.1,0.1-0.1,0.1-0.2c0,0,0-0.1,0-0.1c0,0,0-0.1,0-0.1v0l0.1,0.1c0-0.1,0.1-0.3,0.1-0.4
			c0-0.1,0-0.2,0.1-0.3c0,0,0-0.1,0-0.2c0-0.1,0-0.1,0-0.1c0,0,0-0.1,0-0.1c0,0,0-0.1,0-0.1c0-0.1,0.1-0.1,0.1-0.2
			c0-0.1,0.1-0.2,0.1-0.3c0.1-0.1,0.1-0.2,0.1-0.4c0-0.1,0-0.1,0.1-0.2c0-0.1,0.1-0.1,0.1-0.2c0.1-0.2,0.1-0.4,0.2-0.6
			c0,0,0-0.1,0-0.1c0.1-0.1,0.1-0.2,0.1-0.4c0,0,0,0,0-0.1c0.1,0,0.1-0.1,0.1-0.2c0-0.1,0.1-0.1,0.1-0.2c0.1,0,0.1,0,0.2-0.1
			c0,0,0,0,0,0c0.1,0,0.3,0,0.4-0.1l0.2,0l0.3,0l0,0c0,0,0.1,0,0.1,0c0.1,0,0.2-0.1,0.3-0.1h0l0.3-0.1c0,0,0.1,0,0.1,0
			c0.1,0,0.1,0,0.2,0c0.1,0,0.2-0.1,0.4-0.1c0.1,0,0.2,0,0.3-0.1c0,0,0.1,0,0.1,0h0.3c0.1,0,0.1,0,0.2,0l0.2-0.1
			c0.2-0.1,0.3-0.1,0.5-0.1l0,0c0.1,0,0.2-0.1,0.4-0.1c0.1,0,0.1,0,0.2-0.1c0,0,0,0,0.1,0c0.1,0,0.1,0,0.1,0.1c0,0.1,0,0.1,0.1,0.1
			c0,0,0.1,0.1,0,0.2c0,0.1,0,0.2,0,0.3c0,0.1,0,0.1,0.1,0.1c0,0,0,0,0,0c0.1,0,0.1,0.1,0.1,0.1c0,0,0,0.1,0,0.1
			c0,0.1,0.1,0.2,0.1,0.3c-0.1,0.1-0.1,0.2,0.1,0.3c0,0,0.1,0,0.1,0.1c0,0.1,0.1,0.2,0.1,0.3c0,0,0,0.1,0,0.1c0,0,0,0,0,0.1
			c0,0.1,0,0.2,0.1,0.4c0,0.1,0,0.1,0.1,0.2c0,0,0.1,0.1,0.1,0.2c0,0.1,0.1,0.3,0.1,0.3c0,0,0,0.1,0,0.1c0,0.1,0,0.1,0,0.2
			c0,0.1,0,0,0,0.1c0,0.1,0,0.2,0.1,0.2V75c0.1,0,0.1,0.1,0.2,0.2l-0.1,0.1c0,0.1,0.1,0.2,0.1,0.3c0,0,0,0.1,0,0.1c0,0,0,0.1,0,0.1
			c0,0.1,0.1,0.1,0.1,0.2c0,0.1,0.1,0.1,0.1,0.1c0,0.1,0,0.1,0,0.2c0,0.1,0,0.2,0.1,0.3c0,0.1,0.1,0.2,0.1,0.3v0
			c0,0.1,0,0.2,0.1,0.2c0,0,0,0,0,0.1c0,0.1,0.1,0.2,0.1,0.4c0,0,0,0.1,0,0.1c0.1,0.1,0.2,0.2,0.2,0.4c0,0.1,0.1,0.2,0.1,0.3
			c0,0,0,0.1,0,0.1c0,0,0,0-0.1,0H39c0,0.1,0,0.1,0.1,0.2c0,0.1,0,0.1,0,0.2c0,0-0.1,0.1-0.1,0.1c0,0.1,0,0.1,0.1,0.2l0.1,0l0.1,0.1
			c-0.1,0.1-0.1,0.2-0.1,0.2c0,0.1,0.1,0.1,0.2,0.2s0,0.2,0.1,0.3c0,0,0,0.1,0,0.1l0,0v-0.1c0,0,0.1-0.1,0.1,0c0.1,0,0.1,0,0.2,0
			c0.1,0,0.1,0,0.2,0.1c0,0,0.1,0.1,0.1,0.1c0,0.1-0.1,0-0.1,0c-0.1,0-0.1,0-0.2,0c0,0.1-0.1,0.1-0.1,0.1c-0.1,0,0,0-0.1,0
			c0,0-0.1-0.1-0.1-0.1l0,0c0,0.1,0,0.1,0.1,0.1c0,0.1,0.1,0.2,0.1,0.1c0.1-0.1,0.2-0.1,0.3,0l0.2,0.1L40.1,80l0.3-0.1
			c0,0,0.1,0,0.1-0.1h0c0-0.1-0.1-0.1-0.2-0.1l0,0l0-0.1c0,0,0.1,0,0.1-0.1c0,0,0.1,0,0.2,0c0-0.1,0-0.2,0.1-0.2c0,0,0-0.1,0.1-0.1
			c0,0,0,0,0,0c0.1-0.1,0.1-0.3,0.1-0.4c0-0.2,0-0.3,0.1-0.4l0,0c0.1-0.2,0.2-0.2,0.3-0.2c0.1,0,0.1,0,0.2,0v0c-0.1,0-0.1,0-0.2-0.1
			c0,0-0.1-0.1-0.1-0.2c0,0,0.1-0.1,0.1-0.1c0.1,0,0.1,0,0.2-0.1c0.1,0,0.1,0,0.1-0.1l-0.1-0.1l0-0.1c0.1,0,0.2-0.1,0.3-0.2
			c0-0.1,0-0.2,0-0.3c0,0,0-0.1,0-0.1s0-0.1,0-0.1c0,0,0-0.1,0-0.2c-0.1-0.1-0.1-0.2-0.1-0.3c0,0,0,0,0,0c0-0.1,0-0.1,0-0.1
			c0,0,0-0.1,0-0.1c0,0,0-0.1,0-0.1c0-0.1,0.1-0.2,0.1-0.3c0,0,0,0,0,0v0c0-0.1-0.1-0.2,0-0.4c0-0.1,0-0.2,0-0.2c0,0,0-0.1-0.1-0.1
			c0,0-0.1-0.1,0-0.1c0,0,0-0.1,0-0.1c0-0.1,0-0.1,0-0.2c0,0,0-0.1,0-0.1s0-0.1,0-0.2c-0.1-0.1-0.1-0.1-0.1-0.2
			c0-0.1-0.1-0.2-0.1-0.2c-0.1-0.1-0.1-0.2-0.1-0.3c0-0.1-0.1-0.2-0.1-0.4c-0.1-0.1-0.2-0.3-0.2-0.5c0,0,0-0.1,0-0.1
			c-0.1-0.1-0.1-0.2-0.2-0.3l0,0c0-0.1,0-0.2-0.1-0.2c0-0.1-0.1-0.2-0.1-0.2c-0.1-0.2-0.2-0.4-0.2-0.6c0,0,0-0.1,0-0.1
			c0-0.1-0.1-0.1-0.1-0.2c0-0.1-0.1-0.2-0.1-0.4c0,0,0,0,0,0c0,0-0.1-0.1-0.1-0.2c0-0.1,0-0.1,0-0.1c0,0,0,0,0,0
			c0,0-0.1-0.1-0.1-0.1l0.2-0.1c0.1,0,0.1-0.1,0.2-0.2c0,0,0,0,0.1-0.1l0.2-0.1c0,0,0.1,0,0.1,0s0.2-0.1,0.3-0.2
			c0.1-0.1,0.2-0.1,0.3-0.1c0,0,0-0.1,0-0.1c0,0,0-0.1,0-0.2c0,0,0-0.1,0-0.1c0,0,0-0.1,0-0.1c0,0,0,0,0,0c0.1,0,0.1,0,0.2-0.1
			c0-0.1-0.1,0-0.1,0c-0.1,0-0.2-0.1-0.2-0.2c0,0,0,0,0-0.1c0,0,0.1,0,0.1,0c0.1,0,0.1,0,0.2,0c0,0,0.1,0,0.1-0.1v-0.1l0.2,0l0-0.2
			c0,0,0,0,0,0c-0.1,0-0.2,0-0.2-0.1s-0.1,0-0.1-0.1c0,0,0-0.1,0.1-0.1c0,0,0.1-0.1,0.1-0.1L28.4,74.7z M29.2,69.3L29.2,69.3
			L29.2,69.3L29.2,69.3z M30.4,64.9C30.4,64.9,30.3,64.9,30.4,64.9C30.3,65,30.3,64.9,30.4,64.9C30.3,64.8,30.3,64.8,30.4,64.9
			C30.3,64.8,30.4,64.8,30.4,64.9C30.4,64.8,30.4,64.9,30.4,64.9z M30.4,64.3C30.4,64.3,30.4,64.3,30.4,64.3L30.4,64.3L30.4,64.3
			C30.5,64.3,30.5,64.4,30.4,64.3z M30.7,65.7C30.7,65.7,30.7,65.7,30.7,65.7L30.7,65.7L30.7,65.7C30.7,65.7,30.7,65.7,30.7,65.7z
			 M31.3,63.6L31.3,63.6L31.3,63.6L31.3,63.6L31.3,63.6z M31.7,61.8L31.7,61.8L31.7,61.8L31.7,61.8L31.7,61.8z M31.8,61.4L31.8,61.4
			L31.8,61.4L31.8,61.4L31.8,61.4z M32,61.6L32,61.6L32,61.6L32,61.6L32,61.6z M32,61.4L32,61.4L32,61.4L32,61.4L32,61.4z
			 M32.2,61.8L32.2,61.8L32.2,61.8L32.2,61.8L32.2,61.8z M32.2,61.4C32.2,61.4,32.2,61.4,32.2,61.4C32.2,61.4,32.2,61.4,32.2,61.4
			L32.2,61.4C32.2,61.5,32.2,61.5,32.2,61.4z M32.2,61.2L32.2,61.2v0.2c0,0,0,0,0,0C32.2,61.3,32.2,61.3,32.2,61.2L32.2,61.2h-0.2
			C32.1,61.1,32.2,61.1,32.2,61.2C32.2,61.2,32.2,61.2,32.2,61.2L32.2,61.2L32.2,61.2L32.2,61.2C32.4,61.2,32.3,61.2,32.2,61.2
			L32.2,61.2z M34.5,67.6C34.5,67.6,34.5,67.6,34.5,67.6c0-0.1,0-0.1,0.1-0.2l0,0.1C34.6,67.6,34.5,67.6,34.5,67.6L34.5,67.6z
			 M35.5,66.8c0,0,0,0.1,0,0.1c0,0.1,0,0.1-0.1,0.1l-0.2,0c0,0-0.1,0-0.1,0c0,0,0,0,0,0c-0.1,0-0.1,0-0.2,0.1
			c-0.2-0.1-0.4,0-0.5,0.1c-0.1,0-0.2,0.1-0.3,0.1c-0.1,0-0.2,0-0.4,0.1c-0.1,0-0.1,0-0.2,0c0,0-0.1,0-0.1,0c-0.1,0-0.1,0-0.1-0.1
			s0-0.2,0-0.2c0,0,0,0,0,0c0.1-0.1,0.1-0.2,0.1-0.2c0.1-0.1,0.1-0.2,0.2-0.3c0,0,0,0,0,0c0.1-0.2,0.1-0.3,0.2-0.4
			c0-0.1,0.1-0.2,0.1-0.2c0,0,0-0.1,0-0.1c0,0,0.1-0.1,0.1-0.2c0.1-0.1,0.1-0.2,0.1-0.3c0-0.1,0.1-0.2,0.1-0.3c0-0.1,0-0.1,0.1-0.1
			c0-0.1,0.1-0.1,0.1,0c0,0,0,0.1,0,0.1c0,0.1,0,0.1,0.1,0.1l0.2,0c0,0,0,0,0,0c0-0.1,0.1-0.1,0.2-0.1c0.1,0,0.1,0.1,0.1,0.1
			c0,0.1,0,0.2,0.1,0.2c0.1,0,0,0.1,0,0.1c0,0.1,0.1,0.2,0.1,0.4c0,0,0,0,0,0.1c0.1,0.1,0,0.3,0.1,0.4c0,0.1,0.1,0.2,0.1,0.3
			C35.5,66.6,35.5,66.7,35.5,66.8L35.5,66.8z M37.3,72.4L37.3,72.4L37.3,72.4L37.3,72.4L37.3,72.4z M37.4,72.6l0-0.1l0.1,0l0,0h-0.1
			h0c0,0,0,0,0.1,0l0,0l0.1,0.1C37.5,72.6,37.5,72.6,37.4,72.6L37.4,72.6z M37.5,72.2L37.5,72.2c-0.1,0-0.1-0.1-0.1-0.1c0,0,0,0,0,0
			C37.5,72,37.5,72.1,37.5,72.2C37.6,72.1,37.6,72.2,37.5,72.2C37.5,72.2,37.5,72.2,37.5,72.2L37.5,72.2z M37.7,73.7
			c-0.1-0.1-0.1-0.2-0.1-0.3l0.1-0.1l0,0c0,0,0,0,0,0.1C37.8,73.5,37.8,73.6,37.7,73.7L37.7,73.7z M37.8,74c0-0.1,0-0.1,0.1-0.1
			L37.8,74L37.8,74z M38.4,75C38.4,75,38.5,75.1,38.4,75c0.1,0.1,0,0.1,0,0.1C38.3,75.2,38.4,75.1,38.4,75L38.4,75z M38.2,74.8
			c0,0-0.1,0.1-0.1,0C38.1,74.7,38.1,74.7,38.2,74.8C38.2,74.7,38.2,74.7,38.2,74.8C38.2,74.8,38.2,74.8,38.2,74.8L38.2,74.8z
			 M38.3,72.9h-0.1C38.1,72.9,38.2,72.8,38.3,72.9C38.3,72.8,38.3,72.9,38.3,72.9L38.3,72.9z M38.3,75.4c0-0.1,0-0.1,0.1-0.1
			c0,0,0.1,0,0.1,0c0,0,0.1,0,0.1,0.1l-0.2,0.2C38.4,75.7,38.3,75.6,38.3,75.4L38.3,75.4z M38.6,76c-0.1,0-0.1,0-0.1-0.1
			C38.5,75.9,38.6,75.9,38.6,76C38.6,76,38.6,76,38.6,76L38.6,76z"/>
		<path class="st0" d="M40.1,80.3c-0.1,0-0.1,0-0.2-0.1c-0.1,0-0.1,0-0.2,0l0.1,0.1c0,0,0,0,0,0.1c0,0,0,0,0,0.1c0,0-0.1,0,0,0.1
			c0,0,0.1,0,0.1,0c0,0,0,0,0.1,0c0.1,0.1,0.1,0.1,0.3,0v-0.1L40.1,80.3z"/>
		<path class="st0" d="M43,72.9c0,0,0-0.1,0-0.1c0-0.1,0-0.1,0-0.2v-0.1c0,0.1-0.1,0.1-0.1,0.2c0,0,0,0,0,0c0,0,0,0.1,0,0.1
			C43,72.8,43,72.9,43,72.9C43,73,43,73,43,72.9z"/>
		<path class="st0" d="M42.8,72.1l0.2,0.2V72h-0.1L42.8,72.1z"/>
		<path class="st0" d="M43,71.4c-0.1,0-0.1,0.1-0.1,0.2c0,0.1,0,0.1,0,0.2C43,71.7,43,71.5,43,71.4z"/>
		<path class="st0" d="M14.8,67.3L14.8,67c-0.1,0.1-0.1,0.1-0.1,0.2H14.8z"/>
		<path class="st0" d="M43,73.7c0-0.1,0-0.1,0.1-0.1c0.1,0,0-0.1-0.1-0.1C42.9,73.4,43,73.6,43,73.7C42.9,73.6,42.9,73.6,43,73.7
			C42.9,73.7,42.9,73.7,43,73.7z"/>
		<path class="st0" d="M14.7,67.7l0-0.2c0,0-0.1,0.1-0.1,0.1c0,0,0,0,0,0c0,0,0,0,0,0L14.7,67.7z"/>
		<path class="st0" d="M19.8,72.4C19.8,72.4,19.9,72.4,19.8,72.4c0.1,0,0.1,0,0.1-0.1C19.9,72.4,19.9,72.3,19.8,72.4L19.8,72.4
			L19.8,72.4C19.8,72.3,19.8,72.4,19.8,72.4z"/>
		<path class="st0" d="M42.6,69.6v-0.5l0,0V69.6z"/>
		<path class="st0" d="M19.5,71.6c0,0.1,0.1,0.1,0.1,0.1C19.6,71.6,19.6,71.6,19.5,71.6z"/>
		<path class="st0" d="M42.8,75.4C42.7,75.5,42.7,75.5,42.8,75.4c0.1,0,0.1,0,0.1-0.1C42.9,75.4,42.8,75.4,42.8,75.4z"/>
		<path class="st0" d="M14.9,72.6c-0.1-0.1-0.1,0-0.2,0.1C14.7,72.7,14.8,72.6,14.9,72.6C14.8,72.6,14.9,72.6,14.9,72.6z"/>
		<path class="st0" d="M47.5,73.6c0.1,0.1,0.1,0.1,0.2,0.1C47.6,73.6,47.6,73.6,47.5,73.6C47.6,73.5,47.6,73.6,47.5,73.6z"/>
		<path class="st0" d="M19.8,72.2C19.7,72.2,19.7,72.2,19.8,72.2c-0.1,0.1,0,0.1,0,0.1L19.8,72.2z"/>
		<path class="st0" d="M38,75.5c0-0.1,0-0.1,0-0.1L38,75.5z"/>
		<path class="st0" d="M50.5,77.2l0.1,0.1l0,0C50.6,77.3,50.6,77.2,50.5,77.2z"/>
		<path class="st0" d="M55.9,77.4C55.9,77.3,55.9,77.3,55.9,77.4L55.9,77.4z"/>
		<path class="st0" d="M12.8,58.8l0.2-0.1L12.8,58.8L12.8,58.8z"/>
		<path class="st0" d="M13,58.7L13,58.7z"/>
		<path class="st0" d="M42.5,68.6L42.5,68.6C42.6,68.6,42.6,68.6,42.5,68.6z"/>
		<path class="st0" d="M15,74L15,74L15,74L15,74L15,74z"/>
		<path class="st0" d="M40.6,79.9h-0.1H40.6z"/>
		<path class="st0" d="M40.5,79.9"/>
		<path class="st0" d="M14.7,71L14.7,71L14.7,71L14.7,71L14.7,71z"/>
		<polygon class="st0" points="55.9,79.3 55.9,79.3 55.9,79.3 		"/>
		<path class="st0" d="M55.9,79.3L55.9,79.3C56,79.3,55.9,79.3,55.9,79.3z"/>
		<path class="st0" d="M54.7,80L54.7,80L54.7,80L54.7,80L54.7,80z"/>
		<path class="st0" d="M50.7,77.5L50.7,77.5L50.7,77.5L50.7,77.5L50.7,77.5z"/>
		<path class="st0" d="M55.9,79.2L55.9,79.2L55.9,79.2C55.9,79.2,55.9,79.2,55.9,79.2z"/>
		<path class="st0" d="M55.1,80L55.1,80L55.1,80L55.1,80z"/>
		<path class="st0" d="M19.4,71.1L19.4,71.1C19.4,71.1,19.4,71.1,19.4,71.1L19.4,71.1L19.4,71.1z"/>
		<path class="st0" d="M47.9,73.9C47.9,73.9,47.9,74,47.9,73.9L47.9,73.9C47.9,74,47.9,74,47.9,73.9C47.9,74,47.9,73.9,47.9,73.9z"
			/>
		<path class="st0" d="M42.9,76.4L42.9,76.4L42.9,76.4L42.9,76.4L42.9,76.4z"/>
		<path class="st0" d="M19.8,67.3L19.8,67.3L19.8,67.3L19.8,67.3z"/>
		<path class="st0" d="M54.6,79.8L54.6,79.8L54.6,79.8L54.6,79.8L54.6,79.8z"/>
		<path class="st0" d="M15.4,56.2l1.3-1.9h-1.3v-0.4h1.8v0.4l-1.3,1.9h1.3v0.4h-1.8V56.2z"/>
		<path class="st0" d="M23,53.9v1.6c0,0.8-0.4,1.1-0.9,1.1s-0.9-0.3-0.9-1.1v-1.6h0.4v1.6c0,0.5,0.2,0.7,0.5,0.7s0.5-0.2,0.5-0.7
			v-1.6H23z"/>
		<path class="st0" d="M29.4,53.9v2.7H29v-1.7l-0.7,1.8h-0.2l-0.7-1.8v1.7H27v-2.7h0.4l0.8,1.9l0.8-1.9H29.4z"/>
		<path class="st0" d="M33.5,53.9h0.9c0.5,0,0.8,0.2,0.8,0.7c0,0.5-0.3,0.6-0.4,0.6l0,0c0.3,0,0.5,0.3,0.5,0.6c0,0,0,0,0,0
			c0,0.6-0.4,0.7-0.8,0.7h-0.9V53.9z M34.7,54.6c0-0.2-0.1-0.4-0.5-0.4h-0.4v0.8h0.5C34.6,55.1,34.7,54.9,34.7,54.6L34.7,54.6z
			 M34.8,55.8c0-0.3-0.2-0.4-0.5-0.4h-0.5v0.9h0.5C34.6,56.2,34.8,56.1,34.8,55.8z"/>
		<path class="st0" d="M41.1,56.6h-0.4l-0.2-0.7h-0.9l-0.2,0.7h-0.4l0.9-2.7h0.4L41.1,56.6z M40.3,55.5L40,54.5l-0.3,1.1H40.3z"/>
		<path class="st0" d="M41.6,54.3c0-0.2,0.1-0.4,0.4-0.4c0,0,0,0,0,0c0.2,0,0.4,0.2,0.4,0.4c0,0,0,0,0,0c0,0.2-0.2,0.4-0.4,0.4
			c0,0,0,0,0,0C41.7,54.8,41.6,54.6,41.6,54.3C41.6,54.4,41.6,54.4,41.6,54.3z M42.3,54.3c0-0.2-0.1-0.4-0.3-0.4c0,0,0,0,0,0
			c-0.2,0-0.3,0.1-0.3,0.3c0,0,0,0,0,0c0,0.2,0.1,0.4,0.3,0.4C42.1,54.8,42.3,54.6,42.3,54.3C42.3,54.4,42.3,54.4,42.3,54.3z
			 M42.1,54.6c-0.1,0-0.1-0.2-0.2-0.2h0v0.2h-0.1v-0.5H42c0.1,0,0.1,0,0.2,0.1c0,0,0,0,0,0c0,0.1,0,0.1-0.1,0.1
			C42.1,54.4,42.1,54.5,42.1,54.6L42.1,54.6L42.1,54.6L42.1,54.6z M42,54.2C42,54.2,42,54.1,42,54.2l-0.2-0.1v0.2L42,54.2
			C42,54.3,42,54.3,42,54.2C42,54.2,42,54.2,42,54.2z"/>
	</g>
</g>
<g>
	<defs>
		<rect id="SVGID_1_" x="-18.9" y="70.3" width="95" height="33.9"/>
	</defs>
	<clipPath id="SVGID_2_">
		<use xlink:href="#SVGID_1_"  style="overflow:visible;"/>
	</clipPath>
	<path class="st1" d="M12.1,84.1l0,7.6l-0.6,0c-0.6,0-1.2-0.5-1.2-1.2l0-6.5l-2.5,0l0-1.6l6.8,0l0,1.6L12.1,84.1z"/>
	<path class="st1" d="M20.7,91.8l-1.8-3.4l-1.3,0l0,3.4l-1.8,0l0-7.3c0-1.4,0.5-2,2.1-2l1.5,0c1.9,0,3,1.3,3,3
		c0,1.3-0.8,2.2-1.7,2.6l2.1,3.7L20.7,91.8z M19.3,84.1l-0.9,0c-0.6,0-0.8,0.4-0.8,0.8l0,1.9l1.7,0c0.8,0,1.3-0.6,1.3-1.3
		C20.6,84.6,20.1,84.1,19.3,84.1"/>
	<path class="st1" d="M31.1,87.4c0,3.1-1.1,4.4-3.7,4.4c-2.6,0-3.7-1.3-3.7-4.5l0-0.7c0-2.8,1.1-4.3,3.7-4.3c2.5,0,3.7,1.4,3.7,4.3
		L31.1,87.4z M29.3,86.9c0-1.5-0.2-2.8-1.9-2.8c-1.7,0-1.9,1.3-1.9,2.8l0,0.5c0,1.4,0.1,2.9,1.9,2.9c1.7,0,1.9-1.4,1.9-2.9
		L29.3,86.9z"/>
	<path class="st1" d="M39.9,90.8c0,0.6-0.4,1-0.9,1c-0.4,0-0.9-0.1-1.5-1l-3.2-5l0,5.9l-1.8,0l0-9.2l1.7,0l3.8,6.1l0-6.1l1.8,0
		L39.9,90.8z"/>
	<path class="st1" d="M41.2,86.3c0-2.4,1.3-3.8,3.6-3.8c1.1,0,2,0.4,2.6,1c0.6,0.6,0.7,1.4,0.7,2.1l-1.7,0c0-1.1-0.6-1.5-1.6-1.5
		c-1.7,0-1.7,1.5-1.7,3.1c0,1.6,0,3.1,1.9,3.1c0.7,0,1.2-0.2,1.6-1l0-0.6l-1.1,0l0-0.4c0-0.6,0.5-1.1,1.1-1.1l1.5,0l0,2.5
		c0,0.2,0,0.4-0.2,0.6c-0.6,1.1-1.8,1.6-3.1,1.6c-2.7,0-3.7-1.5-3.7-4.4L41.2,86.3z"/>
	<path class="st1" d="M3.2,92.2c-0.5,0-1-0.1-1.4-0.3c-0.4-0.2-0.8-0.4-1.1-0.7L1.9,90c0.2,0.1,0.4,0.3,0.6,0.3
		c0.2,0.1,0.5,0.1,0.7,0.1c0.2,0,0.5,0,0.7-0.1c0.2-0.1,0.4-0.2,0.6-0.3c0.2-0.1,0.3-0.3,0.4-0.5C4.9,89.3,5,89.1,5,88.9
		c0-0.2,0-0.4-0.1-0.6c-0.1-0.2-0.2-0.4-0.4-0.5l1.3-1.1c0.3,0.3,0.6,0.6,0.8,1c0.2,0.4,0.3,0.8,0.3,1.3c0,0.4-0.1,0.9-0.3,1.3
		c-0.2,0.4-0.4,0.7-0.8,1c-0.3,0.3-0.7,0.5-1.1,0.7C4.2,92.1,3.7,92.2,3.2,92.2"/>
	<path class="st1" d="M1.4,87.8c-0.3-0.3-0.6-0.6-0.8-1c-0.2-0.4-0.3-0.8-0.3-1.3c0-0.4,0.1-0.9,0.3-1.3c0.2-0.4,0.4-0.7,0.8-1
		c0.3-0.3,0.7-0.5,1.1-0.7C3,82.3,3.5,82.3,4,82.3c0.5,0,1,0.1,1.4,0.3c0.4,0.2,0.8,0.4,1.1,0.7l-1.2,1.2c-0.2-0.1-0.4-0.3-0.6-0.3
		C4.5,84,4.3,83.9,4,83.9c-0.2,0-0.5,0-0.7,0.1c-0.2,0.1-0.4,0.2-0.6,0.3c-0.2,0.1-0.3,0.3-0.4,0.5c-0.1,0.2-0.1,0.4-0.1,0.6
		c0,0.2,0,0.4,0.1,0.6c0.1,0.2,0.2,0.4,0.4,0.5L1.4,87.8z"/>
	<rect x="49.3" y="91.3" class="st1" width="7.1" height="0.8"/>
	<rect x="49.3" y="82.4" class="st1" width="7.1" height="0.8"/>
	<rect x="50.7" y="85.5" class="st1" width="1.1" height="4.9"/>
	<path class="st1" d="M52.7,84.2h1.5c0.9,0,1.6,0.5,1.6,1.6v3.1c0,1-0.7,1.6-1.6,1.6h-1.5V84.2z M53.7,89.4h0.3
		c0.4,0,0.6-0.2,0.6-0.6v-3c0-0.4-0.2-0.6-0.6-0.6h-0.3V89.4z"/>
	<rect x="50.7" y="84.2" class="st1" width="1.1" height="1"/>
	<path class="st1" d="M56.8,87.2c0,0.2-0.2,0.4-0.4,0.4c-0.2,0-0.4-0.2-0.4-0.4s0.2-0.4,0.4-0.4C56.7,86.8,56.8,87,56.8,87.2
		 M56.7,87.2c0-0.2-0.1-0.3-0.3-0.3c-0.2,0-0.3,0.1-0.3,0.3c0,0.2,0.1,0.3,0.3,0.3C56.6,87.5,56.7,87.4,56.7,87.2 M56.3,87h0.2
		c0.1,0,0.1,0,0.1,0.1c0,0.1,0,0.1-0.1,0.1l0.1,0.1h-0.1l-0.1-0.1h0v0.1h-0.1V87z M56.4,87.1v0.1h0.1c0,0,0.1,0,0.1-0.1
		C56.5,87.1,56.5,87.1,56.4,87.1L56.4,87.1z"/>
</g>
</svg>