<svg id="search__pin" xmlns="http://www.w3.org/2000/svg" id="icon_pin-black" width="16" height="22" viewBox="-1 -1 27 37" y="143"><style>.est0{fill:#020202}.st1{fill:#010101}.st2{fill:none}.st3{fill:#e93e5c}</style><g id="egroup-12" transform="translate(794.39 95)"><g id="epath"><path class="est0" d="M-781.9-94.2c-6.2 0-11.6 5.3-11.6 11.3 0 9.6 8.2 19 10.7 21.7.4.4.6.5.9.5h.1c.4 0 .7-.2.9-.5 2.4-2.5 10.6-11.8 10.6-21.7 0-6-5.4-11.3-11.6-11.3zm.1 32.2h-.2c-2.4-2.6-10.3-11.7-10.3-20.9 0-5.4 4.9-10.2 10.4-10.2s10.4 4.8 10.4 10.2c0 9.7-8.6 19.1-10.3 20.9z"/><path class="est0" d="M-782-60.3c-.4 0-.7-.2-1.2-.6-1.8-1.9-10.8-11.8-10.8-22 0-6.3 5.6-11.8 12-11.8s12 5.5 12 11.8c0 10.4-8.9 20.1-10.7 22-.3.3-.7.6-1.2.6h-.1zm.1-33.5c-5.9 0-11.1 5.1-11.1 10.9 0 9.8 8.8 19.5 10.5 21.3.3.3.5.3.5.3h.1c.2 0 .4-.1.6-.3 1.8-1.8 10.5-11.3 10.5-21.4 0-5.7-5.2-10.8-11.1-10.8zm0 32.5l-.4-.4c-1.8-1.8-10.4-11.4-10.4-21.2 0-5.7 5.1-10.6 10.9-10.6 5.8 0 10.9 5 10.9 10.6 0 9.9-8.7 19.4-10.5 21.2l-.5.4zm0-31.3c-5.3 0-10 4.5-10 9.7 0 9.1 7.9 18.1 10 20.3 2.2-2.3 10-11.2 10-20.3 0-5.2-4.7-9.7-10-9.7z"/></g><g id="epath-2"><path class="est0" d="M-781.9-87.7c-2.7 0-4.9 2.3-4.9 5s2.3 4.9 5 4.9 4.9-2.2 4.9-4.9c0-2.8-2.2-5-5-5zm0 8.6c-2.1 0-3.8-1.6-3.8-3.7.1-2.1 1.8-3.8 4-3.7 2 .1 3.7 1.7 3.7 3.7-.1 2.1-1.8 3.8-3.9 3.7z"/><path class="est0" d="M-781.8-77.4c-1.4 0-2.7-.5-3.8-1.5-1-1-1.6-2.4-1.6-3.8s.5-2.8 1.5-3.8 2.4-1.6 3.8-1.6c3 0 5.4 2.4 5.4 5.4.1 2.9-2.3 5.3-5.3 5.3zm-.1-9.9c-1.2 0-2.3.5-3.2 1.4-.8.9-1.3 2-1.3 3.2 0 2.5 2 4.4 4.5 4.4h.1c2.4 0 4.4-2 4.4-4.5s-2-4.5-4.5-4.5zm.1 8.7c-.1 0-.1 0 0 0-2.4 0-4.3-1.9-4.3-4.2 0-1.2.5-2.2 1.4-3 .8-.8 1.9-1.2 3.1-1.2 2.3.1 4.1 1.9 4.2 4.2-.2 2.3-2.1 4.2-4.4 4.2zm-.1-.9c1.9 0 3.4-1.5 3.4-3.3-.1-1.8-1.5-3.2-3.3-3.3-.9 0-1.8.3-2.4.9-.7.6-1 1.5-1.1 2.4.1 1.8 1.6 3.3 3.4 3.3z"/></g></g></svg>
